<?xml version="1.0" encoding="UTF-8" standalone="no"?>
<!-- Created with Inkscape (http://www.inkscape.org/) -->

<svg
   width="648"
   height="200"
   viewBox="0 0 171.45 52.916668"
   version="1.1"
   id="svg2273"
   inkscape:version="1.2.2 (732a01da63, 2022-12-09)"
   sodipodi:docname="intro.svg"
   inkscape:export-filename="/home/jiajun/文件/晟鑫/oxo logo/intro.png"
   inkscape:export-xdpi="96"
   inkscape:export-ydpi="96"
   xmlns:inkscape="http://www.inkscape.org/namespaces/inkscape"
   xmlns:sodipodi="http://sodipodi.sourceforge.net/DTD/sodipodi-0.dtd"
   xmlns="http://www.w3.org/2000/svg"
   xmlns:svg="http://www.w3.org/2000/svg">
  <sodipodi:namedview
     id="namedview2275"
     pagecolor="#ffffff"
     bordercolor="#666666"
     borderopacity="1.0"
     inkscape:pageshadow="2"
     inkscape:pageopacity="0.0"
     inkscape:pagecheckerboard="0"
     inkscape:document-units="mm"
     showgrid="true"
     units="px"
     showguides="true"
     inkscape:guide-bbox="true"
     inkscape:zoom="2.0460068"
     inkscape:cx="193.05899"
     inkscape:cy="104.10523"
     inkscape:window-width="1920"
     inkscape:window-height="1009"
     inkscape:window-x="1912"
     inkscape:window-y="-8"
     inkscape:window-maximized="1"
     inkscape:current-layer="layer1"
     inkscape:lockguides="false"
     inkscape:showpageshadow="2"
     inkscape:deskcolor="#d1d1d1">
    <inkscape:grid
       type="xygrid"
       id="grid2523" />
    <sodipodi:guide
       position="13.229167,-34.395834"
       orientation="1,0"
       id="guide17190"
       inkscape:locked="false" />
  </sodipodi:namedview>
  <defs
     id="defs2270">
    <mask
       maskUnits="userSpaceOnUse"
       id="mask4921-4-5">
      <rect
         style="display:inline;opacity:1;fill:#ff8f00;fill-opacity:1;stroke:none;stroke-width:5.094;stroke-linejoin:round;stroke-miterlimit:4;stroke-dasharray:none;stroke-dashoffset:7.6904;stroke-opacity:1"
         id="rect4923-7-2"
         width="617.88403"
         height="478.85614"
         x="189.52043"
         y="68.202759" />
    </mask>
    <mask
       maskUnits="userSpaceOnUse"
       id="mask4407-1-9">
      <rect
         style="display:inline;opacity:1;fill:#ff8f00;fill-opacity:1;stroke:none;stroke-width:7.2;stroke-linejoin:round;stroke-miterlimit:4;stroke-dasharray:43.2, 7.2;stroke-dashoffset:0;stroke-opacity:1"
         id="rect4409-1-2"
         width="442.30103"
         height="117.57152"
         x="-2251.1475"
         y="-560.15344"
         ry="0"
         rx="0" />
    </mask>
  </defs>
  <g
     inkscape:label="圖層 1"
     inkscape:groupmode="layer"
     id="layer1">
    <rect
       style="fill:#ff8f00;fill-opacity:1;stroke:none;stroke-width:0.970227;stroke-miterlimit:4;stroke-dasharray:none"
       id="rect3741"
       width="171.97917"
       height="52.916664"
       x="0"
       y="0"
       rx="4.2333331"
       ry="4.2333331" />
    <g
       id="g18566"
       transform="matrix(0.80762269,0,0,0.80762269,2.4380252,5.6488597)">
      <text
         inkscape:export-ydpi="600"
         inkscape:export-xdpi="600"
         id="text18529"
         y="33.910454"
         x="66.86776"
         style="font-style:normal;font-variant:normal;font-weight:500;font-stretch:normal;font-size:4.74495px;line-height:125%;font-family:'Noto Sans T Chinese';-inkscape-font-specification:'Noto Sans T Chinese, Medium';text-align:start;letter-spacing:0px;word-spacing:0px;writing-mode:lr-tb;text-anchor:start;display:inline;fill:#ffffff;fill-opacity:1;stroke:none;stroke-width:0.259364px;stroke-linecap:butt;stroke-linejoin:miter;stroke-opacity:1"
         xml:space="preserve"><tspan
           y="33.910454"
           x="66.86776"
           style="font-style:normal;font-variant:normal;font-weight:500;font-stretch:normal;font-size:4.74495px;line-height:125%;font-family:'Noto Sans T Chinese';-inkscape-font-specification:'Noto Sans T Chinese, Medium';text-align:start;letter-spacing:1.0182px;writing-mode:lr-tb;text-anchor:start;fill:#ffffff;stroke-width:0.259364px"
           id="tspan18527"
           sodipodi:role="line">企業級開源文書處理套件</tspan></text>
      <text
         inkscape:export-ydpi="600"
         inkscape:export-xdpi="600"
         transform="scale(1.0572498,0.94585027)"
         id="text18537"
         y="43.079651"
         x="99.917465"
         style="font-style:normal;font-variant:normal;font-weight:normal;font-stretch:normal;font-size:4.3681px;line-height:125%;font-family:'Noto Sans T Chinese';-inkscape-font-specification:'Noto Sans T Chinese, Normal';text-align:start;letter-spacing:0px;word-spacing:0px;writing-mode:lr-tb;text-anchor:start;display:inline;fill:#ffffff;fill-opacity:1;stroke:none;stroke-width:0.259364px;stroke-linecap:butt;stroke-linejoin:miter;stroke-opacity:1"
         xml:space="preserve"><tspan
           style="font-style:normal;font-variant:normal;font-weight:normal;font-stretch:normal;font-size:4.3681px;line-height:125%;font-family:'Noto Sans T Chinese';-inkscape-font-specification:'Noto Sans T Chinese, Normal';text-align:start;writing-mode:lr-tb;text-anchor:start;stroke-width:0.259364px"
           y="43.079651"
           x="99.917465"
           id="tspan18535"
           sodipodi:role="line">Release 10</tspan></text>
      <path
         inkscape:export-ydpi="600"
         inkscape:export-xdpi="600"
         sodipodi:nodetypes="scscsscscsccccccccccccccsccscccccccccccccccccccccccccccccsssssccccccccccccccccccccccc"
         inkscape:connector-curvature="0"
         d="m 68.432992,6.57464 c -5.256316,0 -9.517401,4.7088 -9.517453,10.51744 5.2e-5,5.80864 4.261137,10.51745 9.517453,10.51745 5.256316,0 9.517402,-4.70881 9.517428,-10.51745 -2.6e-5,-5.80864 -4.261112,-10.51744 -9.517428,-10.51744 z m 0,3.06856 c 3.431874,0 6.21399,3.33496 6.214016,7.44888 -2.6e-5,4.11392 -2.782142,7.44889 -6.214016,7.44889 -3.4319,0 -6.21399,-3.33497 -6.214042,-7.44889 5.2e-5,-4.11392 2.782142,-7.44888 6.214042,-7.44888 z M 121.64936,7.27035 v 19.76738 h 7.37672 v -2.5067 h -4.37936 v -6.56292 h 4.37936 v -2.48103 h -4.37936 V 9.77652 h 4.37936 V 7.27035 Z m -3.95099,-0.19208 c -4.75053,0.60322 -8.25098,4.18949 -8.25098,10.29541 0,5.93543 3.27527,9.51091 8.25098,9.90962 v -2.63243 c -3.18343,-0.60732 -5.09847,-3.20851 -5.09847,-7.43235 0,-4.40971 2.09115,-6.93599 5.09847,-7.56667 z m -15.19934,19.95922 h 2.99737 V 7.27035 h -2.99737 z M 92.25267,7.27035 V 27.03773 H 95.25 v -8.68224 h 3.29804 V 15.875 H 95.25 V 9.77652 h 3.29804 V 7.27035 Z m -10.89914,0 v 19.76738 h 2.997336 V 18.35549 H 88.30165 V 15.875 H 84.350866 V 9.77652 H 88.30165 V 7.27035 Z M 27.957338,1.85673 c -8.441229,0 -15.284195,6.84297 -15.284195,15.2842 0,8.44123 6.842966,15.28419 15.284195,15.28419 8.441226,0 15.284191,-6.84296 15.284191,-15.28419 0,-8.44123 -6.842965,-15.2842 -15.284191,-15.2842 z m 0,3.95669 c 6.256188,0 11.327969,5.07133 11.328042,11.32751 -7.3e-5,6.25618 -5.071854,11.32773 -11.328042,11.3275 -6.255984,-6e-5 -11.327439,-5.07152 -11.327511,-11.3275 7.2e-5,-6.25598 5.071527,-11.32744 11.327511,-11.32751 z m 9.440925,-2.3906 -0.02622,0.0332 c 0.09711,0.0582 0.193605,0.1174 0.289461,0.17764 z m 3.292155,2.6378 c 2.281064,2.35761 3.785791,5.35699 4.311954,8.59501 l 3.420032,2.74053 -3.488522,2.79508 c -0.602175,3.22523 -2.177314,6.18878 -4.513667,8.4923 l 11.045004,-8.84916 8.868961,7.10543 0.05405,-0.068 c -2.234288,-2.23826 -3.637347,-5.1317 -3.988793,-8.22584 l -1.725533,-1.38256 1.680051,-1.34565 c 0.221562,-2.53469 1.149918,-4.96357 2.685947,-7.02731 l -7.408816,5.9353 z"
         style="display:inline;fill:#ffffff;fill-opacity:1;stroke:none;stroke-width:1.86742;stroke-linejoin:round;stroke-miterlimit:4;stroke-dasharray:11.2045, 1.86742;stroke-dashoffset:0;stroke-opacity:1"
         id="path18539" />
    </g>
    <g
       id="g18557"
       transform="matrix(0.80473024,0,0,0.80473024,37.820277,-131.52819)">
      <text
         transform="scale(0.99331784,1.0067271)"
         id="text18543"
         y="218.5892"
         x="130.12814"
         style="font-style:normal;font-variant:normal;font-weight:normal;font-stretch:normal;font-size:2.84989px;line-height:125%;font-family:'Noto Sans T Chinese';-inkscape-font-specification:'Noto Sans T Chinese, Normal';text-align:start;letter-spacing:0px;word-spacing:0px;writing-mode:lr-tb;text-anchor:start;display:inline;fill:#ffffff;fill-opacity:1;stroke:none;stroke-width:0.259364px;stroke-linecap:butt;stroke-linejoin:miter;stroke-opacity:1"
         xml:space="preserve"><tspan
           dx="0.23221338"
           style="letter-spacing:0.203787px;fill:#ffffff;fill-opacity:1;stroke-width:0.259364px"
           y="218.5892"
           x="130.12814"
           id="tspan18541"
           sodipodi:role="line">晟鑫科技股份有限公司</tspan></text>
      <text
         id="text18547"
         y="222.32535"
         x="129.49619"
         style="font-style:normal;font-variant:normal;font-weight:normal;font-stretch:normal;font-size:1.94594px;line-height:125%;font-family:'Noto Sans T Chinese';-inkscape-font-specification:'Noto Sans T Chinese, Normal';text-align:start;letter-spacing:0px;word-spacing:0px;writing-mode:lr-tb;text-anchor:start;display:inline;fill:#ffffff;fill-opacity:1;stroke:none;stroke-width:0.259364px;stroke-linecap:butt;stroke-linejoin:miter;stroke-opacity:1"
         xml:space="preserve"><tspan
           style="letter-spacing:0.119576px;fill:#ffffff;fill-opacity:1;stroke-width:0.259364px"
           y="222.32535"
           x="129.49619"
           id="tspan18545"
           sodipodi:role="line">OSS Integral Institute Co., Ltd.</tspan></text>
      <g
         style="display:inline;fill:#ffdbad;fill-opacity:1"
         transform="matrix(0.22143667,0,0,0.22143667,-21.089708,117.69436)"
         id="g18555">
        <path
           style="clip-rule:evenodd;display:inline;fill:#ffdbad;fill-opacity:1;fill-rule:evenodd"
           inkscape:connector-curvature="0"
           d="m 675.28427,472.4788 c -3.25047,0 -6.48721,0 -9.74889,0 0,-6.77713 0,-13.5529 0,-20.37076 0.16978,0.10435 0.32813,0.19977 0.48488,0.29816 0.54987,0.3453 1.09378,0.69998 1.65166,1.03178 0.17551,0.10411 0.22471,0.22013 0.22425,0.41532 -0.006,3.09372 -0.005,6.18722 -0.005,9.28094 0,2.17842 0,4.35662 0,6.53527 0,0.11624 0,0.23248 0,0.36063 1.69057,0 3.34292,0 5.01426,0 0,-6.63595 0,-13.25772 0,-19.92295 -0.12379,0 -0.23843,0 -0.35285,0 -6.48012,0 -12.96023,0 -19.44058,0 -1.23611,0 -2.12212,-0.88853 -2.12235,-2.12877 -2.3e-4,-1.83976 -6.9e-4,-3.67929 0,-5.51905 6.8e-4,-1.15831 0.91461,-2.07087 2.07156,-2.07087 10.42507,0 20.85014,-6.9e-4 31.27521,0.005 0.26132,0 0.45034,-0.0506 0.64118,-0.25743 0.51966,-0.56383 1.32421,-0.68808 2.01435,-0.35903 0.68053,0.32425 1.07022,1.03155 0.9931,1.80132 -0.0737,0.73476 -0.61073,1.35304 -1.35075,1.51322 -0.7009,0.15195 -1.29562,-0.0515 -1.78347,-0.58601 -0.0785,-0.0858 -0.22426,-0.1563 -0.3389,-0.1563 -10.16879,-0.007 -20.33757,-0.006 -30.50636,-0.006 -0.54964,0 -0.79883,0.25582 -0.79883,0.8105 -2.3e-4,1.40041 -2.3e-4,2.8006 0,4.20101 0,0.52104 0.23386,0.77343 0.75261,0.80981 0.0819,0.005 0.16475,0.002 0.24713,0.002 6.89223,0 13.78423,0 20.67624,0 0.12677,0 0.25353,0 0.40113,0 -2.3e-4,8.11531 -2.3e-4,16.20796 -2.3e-4,24.31343 z"
           id="path18549" />
        <path
           style="clip-rule:evenodd;display:inline;fill:#ffdbad;fill-opacity:1;fill-rule:evenodd"
           inkscape:connector-curvature="0"
           d="m 665.60265,438.44257 c 0,-3.63879 0,-7.25012 0,-10.88342 3.24108,0 6.4824,0 9.74112,0 0,2.2981 0,4.59139 0,6.93228 -0.14371,-0.0908 -0.26911,-0.17116 -0.39542,-0.2501 -0.58876,-0.36887 -1.1741,-0.74323 -1.76859,-1.1018 -0.15423,-0.0929 -0.20618,-0.19633 -0.20435,-0.37276 0.009,-0.80524 0.004,-1.6107 0.004,-2.41594 0,-0.0993 0,-0.19862 0,-0.32058 -1.67409,0 -3.32256,0 -4.9852,0 0,2.15004 0,4.28704 0,6.45883 0.12608,0 0.24187,0 0.35765,0 6.98262,0 13.96547,0 20.94786,0 1.23818,0 2.11641,0.84528 2.12648,2.09078 0.0149,1.84845 0.0145,3.69737 2.3e-4,5.54582 -0.009,1.2439 -0.88441,2.08232 -2.1306,2.08232 -10.43308,0 -20.86593,4.6e-4 -31.29879,-0.004 -0.2064,0 -0.34507,0.0519 -0.48808,0.21511 -0.52905,0.60455 -1.44938,0.74894 -2.15257,0.36566 -0.72652,-0.3961 -1.0741,-1.21575 -0.86336,-2.03541 0.19291,-0.75009 0.90501,-1.28188 1.71047,-1.28715 0.53683,-0.003 0.98167,0.19405 1.32239,0.60319 0.13043,0.15675 0.26979,0.2048 0.46932,0.20457 10.09419,-0.005 20.18861,-0.004 30.28281,-0.005 0.71553,0 0.95717,-0.23958 0.95717,-0.94825 0,-1.32719 0,-2.65416 0,-3.98089 0,-0.64574 -0.24713,-0.89379 -0.89219,-0.89379 -7.4588,-2.3e-4 -14.91715,0 -22.37596,0 -0.11647,-2.3e-4 -0.23317,-2.3e-4 -0.36452,-2.3e-4 z"
           id="path18551" />
        <path
           style="clip-rule:evenodd;display:inline;fill:#ffdbad;fill-opacity:1;fill-rule:evenodd"
           inkscape:connector-curvature="0"
           d="m 670.43819,424.87823 c -3.91017,-0.0213 -7.16568,-3.23217 -6.9801,-7.35835 0.16087,-3.57334 3.09831,-6.73297 7.15401,-6.65746 3.79668,0.0709 6.94395,3.15529 6.8483,7.18697 -0.0918,3.85914 -3.21797,6.82198 -7.02221,6.82884 z m 4.44174,-7.01717 c -2.2e-4,-2.4132 -1.97477,-4.39094 -4.3525,-4.42526 -2.28367,-0.0331 -4.48246,1.74022 -4.50076,4.41473 -0.017,2.44295 1.88231,4.45067 4.43692,4.44746 2.6823,-0.003 4.4509,-2.20885 4.41634,-4.43693 z"
           id="path18553" />
      </g>
    </g>
  </g>
</svg>
