<?xml version="1.0" encoding="UTF-8" standalone="no"?>
<svg
   width="400"
   height="65"
   viewBox="0 0 400 65"
   fill="none"
   version="1.1"
   id="svg96"
   sodipodi:docname="logo_inverted.svg"
   inkscape:version="1.2.2 (732a01da63, 2022-12-09)"
   xmlns:inkscape="http://www.inkscape.org/namespaces/inkscape"
   xmlns:sodipodi="http://sodipodi.sourceforge.net/DTD/sodipodi-0.dtd"
   xmlns="http://www.w3.org/2000/svg"
   xmlns:svg="http://www.w3.org/2000/svg">
  <defs
     id="defs100">
    <mask
       maskUnits="userSpaceOnUse"
       id="mask4450-4">
      <rect
         rx="0"
         ry="0"
         y="-688.90546"
         x="-2253.6267"
         height="63.730354"
         width="454.13211"
         id="rect4452-3"
         style="display:inline;opacity:1;fill:#ff8f00;fill-opacity:1;stroke:none;stroke-width:7.2;stroke-linejoin:round;stroke-miterlimit:4;stroke-dasharray:43.2, 7.2;stroke-dashoffset:0;stroke-opacity:1" />
    </mask>
    <mask
       maskUnits="userSpaceOnUse"
       id="mask4450-4-3">
      <rect
         rx="0"
         ry="0"
         y="-688.90546"
         x="-2253.6267"
         height="63.730354"
         width="454.13211"
         id="rect4452-3-6"
         style="display:inline;opacity:1;fill:#ff8f00;fill-opacity:1;stroke:none;stroke-width:7.2;stroke-linejoin:round;stroke-miterlimit:4;stroke-dasharray:43.2, 7.2;stroke-dashoffset:0;stroke-opacity:1" />
    </mask>
  </defs>
  <sodipodi:namedview
     id="namedview98"
     pagecolor="#ffffff"
     bordercolor="#666666"
     borderopacity="1.0"
     inkscape:pageshadow="2"
     inkscape:pageopacity="0"
     inkscape:pagecheckerboard="false"
     showgrid="true"
     inkscape:zoom="1.175853"
     inkscape:cx="306.16072"
     inkscape:cy="95.250001"
     inkscape:window-width="1920"
     inkscape:window-height="1009"
     inkscape:window-x="1912"
     inkscape:window-y="-8"
     inkscape:window-maximized="1"
     inkscape:current-layer="g3915"
     inkscape:showpageshadow="2"
     inkscape:deskcolor="#d1d1d1">
    <inkscape:grid
       type="xygrid"
       id="grid1026" />
  </sodipodi:namedview>
  <g
     id="g3915"
     transform="matrix(1.0506465,0,0,1.0506465,-107.49471,-144.45474)">
    <path
       sodipodi:nodetypes="scscsscscsccccccccccccccsccscccccccccccccccccccccccccccccsssssccccccccccccccccccccccc"
       inkscape:connector-curvature="0"
       d="m 402.29899,155.19218 c -6.58262,0 -11.91883,5.89696 -11.91894,13.1712 1.1e-4,7.27424 5.33632,13.1712 11.91894,13.1712 6.5825,0 11.91883,-5.89696 11.91883,-13.1712 0,-7.27424 -5.33633,-13.1712 -11.91883,-13.1712 z m 0,3.84277 c 4.29781,0 7.78186,4.17643 7.78186,9.32843 0,5.15189 -3.48405,9.32843 -7.78186,9.32843 -4.29782,0 -7.78198,-4.17654 -7.78198,-9.32843 0,-5.152 3.48416,-9.32843 7.78198,-9.32843 z m 66.64395,-2.97152 v 24.7551 h 9.23797 v -3.1392 h -5.48437 v -8.21888 h 5.48437 v -3.10699 h -5.48437 v -7.15147 h 5.48437 v -3.13856 z m -4.94795,-0.24053 c -5.94912,0.75541 -10.3328,5.24651 -10.3328,12.89312 0,7.43307 4.10165,11.91072 10.3328,12.41003 v -3.29664 c -3.98667,-0.76054 -6.38485,-4.01803 -6.38485,-9.30774 0,-5.52234 2.61877,-8.68608 6.38485,-9.47584 z m -19.03445,24.99531 h 3.7537 v -24.75478 h -3.7537 z m -12.83168,-24.75478 v 24.7551 h 3.7536 v -10.87296 h 4.13024 v -3.10635 h -4.13024 v -7.63723 h 4.13024 v -3.13856 z m -13.64928,0 v 24.7551 h 3.7537 v -10.87296 h 4.94763 v -3.10635 h -4.94763 v -7.63723 h 4.94763 v -3.13856 z m -66.86913,-6.77962 c -10.57109,0 -19.14069,8.5696 -19.14069,19.1408 0,10.57109 8.5696,19.14069 19.14069,19.14069 10.5711,0 19.1407,-8.5696 19.1407,-19.14069 0,-10.5712 -8.5696,-19.1408 -19.1407,-19.1408 z m 0,4.95509 c 7.83478,-3.2e-4 14.18624,6.35093 14.18635,14.18571 -1.1e-4,7.83466 -6.35157,14.18592 -14.18635,14.1856 -7.83445,-1.1e-4 -14.1856,-6.35115 -14.1857,-14.1856 10e-5,-7.83456 6.35125,-14.1856 14.1857,-14.18571 z m 11.82304,-2.99381 -0.0331,0.0416 c 0.1217,0.0725 0.24256,0.14698 0.36256,0.2225 z m 4.12288,3.30336 c 2.85664,2.95253 4.74102,6.70869 5.3999,10.76373 l 4.28298,3.432 -4.36874,3.50037 c -0.75414,4.03894 -2.72672,7.7503 -5.65248,10.63499 l 13.83189,-11.08192 11.10677,8.89824 0.0672,-0.0853 c -2.79808,-2.80299 -4.55509,-6.42656 -4.9952,-10.30134 l -2.16096,-1.73141 2.104,-1.68523 c 0.27744,-3.17429 1.44,-6.216 3.36363,-8.80042 l -9.27819,7.43285 z"
       style="display:inline;fill:#ff8f00;fill-opacity:1;stroke:none;stroke-width:7.68;stroke-linejoin:round;stroke-miterlimit:4;stroke-dasharray:46.08, 7.68;stroke-dashoffset:0;stroke-opacity:1"
       id="path4369"
       inkscape:export-xdpi="600"
       inkscape:export-ydpi="600" />
  </g>
  <g
     id="g25556"
     transform="matrix(0.83609464,0,0,0.83609722,-112.75393,-49.064838)">
    <g
       inkscape:export-ydpi="600"
       inkscape:export-xdpi="600"
       style="display:inline;fill:#ff9000;fill-opacity:0.152941"
       transform="matrix(0.78679374,0,0,0.78679374,-509.49223,85.419858)"
       id="g4351">
      <text
         xml:space="preserve"
         style="font-style:normal;font-variant:normal;font-weight:normal;font-stretch:normal;font-size:12.87px;line-height:125%;font-family:'Noto Sans T Chinese';-inkscape-font-specification:'Noto Sans T Chinese, Normal';text-align:start;letter-spacing:0px;word-spacing:0px;writing-mode:lr-tb;text-anchor:start;display:inline;fill:#ff8f00;fill-opacity:1;stroke:none;stroke-width:1px;stroke-linecap:butt;stroke-linejoin:miter;stroke-opacity:1"
         x="860.28436"
         y="46.008289"
         id="text4353"
         transform="scale(0.99331785,1.0067271)"><tspan
           sodipodi:role="line"
           id="tspan4355"
           x="860.28436"
           y="46.008289"
           style="letter-spacing:0.920294px;fill:#ff8f00;fill-opacity:1"
           dx="1.0486672">晟鑫科技股份有限公司</tspan></text>
      <text
         xml:space="preserve"
         style="font-style:normal;font-variant:normal;font-weight:normal;font-stretch:normal;font-size:8.78781px;line-height:125%;font-family:'Noto Sans T Chinese';-inkscape-font-specification:'Noto Sans T Chinese, Normal';text-align:start;letter-spacing:0px;word-spacing:0px;writing-mode:lr-tb;text-anchor:start;display:inline;fill:#ff8f00;fill-opacity:1;stroke:none;stroke-width:1px;stroke-linecap:butt;stroke-linejoin:miter;stroke-opacity:1"
         x="855.6087"
         y="56.549496"
         id="text4357"><tspan
           sodipodi:role="line"
           id="tspan4359"
           x="855.6087"
           y="56.549496"
           style="letter-spacing:0.54px;fill:#ff8f00;fill-opacity:1">OSS Integral Institute Co., Ltd.</tspan></text>
      <g
         id="g4361"
         transform="translate(175.56822,-415.96034)"
         style="display:inline;opacity:1;fill:#ff8f00;fill-opacity:1">
        <path
           id="path4363"
           d="m 675.28427,472.4788 c -3.25047,0 -6.48721,0 -9.74889,0 0,-6.77713 0,-13.5529 0,-20.37076 0.16978,0.10435 0.32813,0.19977 0.48488,0.29816 0.54987,0.3453 1.09378,0.69998 1.65166,1.03178 0.17551,0.10411 0.22471,0.22013 0.22425,0.41532 -0.006,3.09372 -0.005,6.18722 -0.005,9.28094 0,2.17842 0,4.35662 0,6.53527 0,0.11624 0,0.23248 0,0.36063 1.69057,0 3.34292,0 5.01426,0 0,-6.63595 0,-13.25772 0,-19.92295 -0.12379,0 -0.23843,0 -0.35285,0 -6.48012,0 -12.96023,0 -19.44058,0 -1.23611,0 -2.12212,-0.88853 -2.12235,-2.12877 -2.3e-4,-1.83976 -6.9e-4,-3.67929 0,-5.51905 6.8e-4,-1.15831 0.91461,-2.07087 2.07156,-2.07087 10.42507,0 20.85014,-6.9e-4 31.27521,0.005 0.26132,0 0.45034,-0.0506 0.64118,-0.25743 0.51966,-0.56383 1.32421,-0.68808 2.01435,-0.35903 0.68053,0.32425 1.07022,1.03155 0.9931,1.80132 -0.0737,0.73476 -0.61073,1.35304 -1.35075,1.51322 -0.7009,0.15195 -1.29562,-0.0515 -1.78347,-0.58601 -0.0785,-0.0858 -0.22426,-0.1563 -0.3389,-0.1563 -10.16879,-0.007 -20.33757,-0.006 -30.50636,-0.006 -0.54964,0 -0.79883,0.25582 -0.79883,0.8105 -2.3e-4,1.40041 -2.3e-4,2.8006 0,4.20101 0,0.52104 0.23386,0.77343 0.75261,0.80981 0.0819,0.005 0.16475,0.002 0.24713,0.002 6.89223,0 13.78423,0 20.67624,0 0.12677,0 0.25353,0 0.40113,0 -2.3e-4,8.11531 -2.3e-4,16.20796 -2.3e-4,24.31343 z"
           inkscape:connector-curvature="0"
           style="clip-rule:evenodd;display:inline;fill:#ff8f00;fill-opacity:1;fill-rule:evenodd" />
        <path
           id="path4365"
           d="m 665.60265,438.44257 c 0,-3.63879 0,-7.25012 0,-10.88342 3.24108,0 6.4824,0 9.74112,0 0,2.2981 0,4.59139 0,6.93228 -0.14371,-0.0908 -0.26911,-0.17116 -0.39542,-0.2501 -0.58876,-0.36887 -1.1741,-0.74323 -1.76859,-1.1018 -0.15423,-0.0929 -0.20618,-0.19633 -0.20435,-0.37276 0.009,-0.80524 0.004,-1.6107 0.004,-2.41594 0,-0.0993 0,-0.19862 0,-0.32058 -1.67409,0 -3.32256,0 -4.9852,0 0,2.15004 0,4.28704 0,6.45883 0.12608,0 0.24187,0 0.35765,0 6.98262,0 13.96547,0 20.94786,0 1.23818,0 2.11641,0.84528 2.12648,2.09078 0.0149,1.84845 0.0145,3.69737 2.3e-4,5.54582 -0.009,1.2439 -0.88441,2.08232 -2.1306,2.08232 -10.43308,0 -20.86593,4.6e-4 -31.29879,-0.004 -0.2064,0 -0.34507,0.0519 -0.48808,0.21511 -0.52905,0.60455 -1.44938,0.74894 -2.15257,0.36566 -0.72652,-0.3961 -1.0741,-1.21575 -0.86336,-2.03541 0.19291,-0.75009 0.90501,-1.28188 1.71047,-1.28715 0.53683,-0.003 0.98167,0.19405 1.32239,0.60319 0.13043,0.15675 0.26979,0.2048 0.46932,0.20457 10.09419,-0.005 20.18861,-0.004 30.28281,-0.005 0.71553,0 0.95717,-0.23958 0.95717,-0.94825 0,-1.32719 0,-2.65416 0,-3.98089 0,-0.64574 -0.24713,-0.89379 -0.89219,-0.89379 -7.4588,-2.3e-4 -14.91715,0 -22.37596,0 -0.11647,-2.3e-4 -0.23317,-2.3e-4 -0.36452,-2.3e-4 z"
           inkscape:connector-curvature="0"
           style="clip-rule:evenodd;display:inline;fill:#ff8f00;fill-opacity:1;fill-rule:evenodd" />
        <path
           id="path4367"
           d="m 670.43819,424.87823 c -3.91017,-0.0213 -7.16568,-3.23217 -6.9801,-7.35835 0.16087,-3.57334 3.09831,-6.73297 7.15401,-6.65746 3.79668,0.0709 6.94395,3.15529 6.8483,7.18697 -0.0918,3.85914 -3.21797,6.82198 -7.02221,6.82884 z m 4.44174,-7.01717 c -2.2e-4,-2.4132 -1.97477,-4.39094 -4.3525,-4.42526 -2.28367,-0.0331 -4.48246,1.74022 -4.50076,4.41473 -0.017,2.44295 1.88231,4.45067 4.43692,4.44746 2.6823,-0.003 4.4509,-2.20885 4.41634,-4.43693 z"
           inkscape:connector-curvature="0"
           style="clip-rule:evenodd;display:inline;fill:#ff8f00;fill-opacity:1;fill-rule:evenodd" />
      </g>
    </g>
  </g>
</svg>
