<?xml version="1.0" encoding="UTF-8" standalone="no"?>
<!-- Generator: Adobe Illustrator 24.2.1, SVG Export Plug-In . SVG Version: 6.00 Build 0)  -->

<svg
   version="1.1"
   id="圖層_1"
   x="0px"
   y="0px"
   width="398.1px"
   height="65.5px"
   viewBox="0 0 398.1 65.5"
   style="enable-background:new 0 0 398.1 65.5;"
   xml:space="preserve"
   sodipodi:docname="logo.svg"
   inkscape:version="1.2.2 (732a01da63, 2022-12-09)"
   xmlns:inkscape="http://www.inkscape.org/namespaces/inkscape"
   xmlns:sodipodi="http://sodipodi.sourceforge.net/DTD/sodipodi-0.dtd"
   xmlns="http://www.w3.org/2000/svg"
   xmlns:svg="http://www.w3.org/2000/svg"><defs
   id="defs123"><mask
     maskUnits="userSpaceOnUse"
     id="mask4407-1-9"><rect
       style="display:inline;opacity:1;fill:#ff8f00;fill-opacity:1;stroke:none;stroke-width:7.2;stroke-linejoin:round;stroke-miterlimit:4;stroke-dasharray:43.2, 7.2;stroke-dashoffset:0;stroke-opacity:1"
       id="rect4409-1-2"
       width="442.30103"
       height="117.57152"
       x="-2251.1475"
       y="-560.15344"
       ry="0"
       rx="0" /></mask></defs><sodipodi:namedview
   id="namedview121"
   pagecolor="#ffffff"
   bordercolor="#666666"
   borderopacity="1.0"
   inkscape:pageshadow="2"
   inkscape:pageopacity="0"
   inkscape:pagecheckerboard="0"
   showgrid="true"
   showguides="true"
   inkscape:guide-bbox="true"
   inkscape:zoom="2.3570226"
   inkscape:cx="211.28351"
   inkscape:cy="-8.0610173"
   inkscape:window-width="1920"
   inkscape:window-height="1009"
   inkscape:window-x="-8"
   inkscape:window-y="-8"
   inkscape:window-maximized="1"
   inkscape:current-layer="圖層_1"
   inkscape:showpageshadow="2"
   inkscape:deskcolor="#d1d1d1"><inkscape:grid
     type="xygrid"
     id="grid1153"
     spacingx="0.99999999"
     spacingy="0.99999999"
     originx="0"
     originy="0"
     enabled="true"
     empspacing="10" /><sodipodi:guide
     position="0,185.5"
     orientation="1,0"
     id="guide1155"
     inkscape:locked="false" /><sodipodi:guide
     position="54.999999,0.50000065"
     orientation="0,-1"
     id="guide1157"
     inkscape:locked="false" /><sodipodi:guide
     position="259.99999,0.50000065"
     orientation="0,-1"
     id="guide1159"
     inkscape:locked="false" /><sodipodi:guide
     position="399.99999,35.5"
     orientation="1,0"
     id="guide1161"
     inkscape:locked="false" /></sodipodi:namedview>

<rect
   rx="0"
   ry="0"
   y="-0.45903412"
   x="5.6843419e-14"
   height="66.049385"
   width="400"
   id="rect4283"
   style="display:inline;fill:#ff8f00;fill-opacity:1;stroke:none;stroke-width:5.132;stroke-linejoin:round;stroke-miterlimit:4;stroke-dasharray:30.7921, 5.132;stroke-dashoffset:0;stroke-opacity:1" /><path
   inkscape:export-ydpi="600"
   inkscape:export-xdpi="600"
   id="path4371"
   style="display:inline;fill:#ffffff;fill-opacity:1;stroke:none;stroke-width:4.44444;stroke-linejoin:round;stroke-miterlimit:4;stroke-dasharray:26.6667, 4.44444;stroke-dashoffset:0;stroke-opacity:1"
   d="m 238.01139,17.932821 c -7.27926,0 -13.18019,6.520926 -13.18031,14.565067 1.2e-4,8.044136 5.90105,14.565124 13.18031,14.565124 7.27914,0 13.18018,-6.520988 13.18018,-14.565124 0,-8.04408 -5.90104,-14.565067 -13.18018,-14.565067 z m 0,4.249444 c 4.75259,0 8.60543,4.618457 8.60543,10.315623 0,5.697222 -3.85284,10.315617 -8.60543,10.315617 -4.75265,0 -8.60556,-4.618395 -8.60556,-10.315617 0,-5.697166 3.85291,-10.315623 8.60556,-10.315623 z M 311.7083,18.896277 V 46.27116 h 10.21562 v -3.47142 h -6.06482 v -9.088642 h 6.06482 v -3.435864 h -6.06482 v -7.908278 h 6.06482 v -3.470679 z m -5.4716,-0.266049 c -6.57877,0.83537 -11.42636,5.801852 -11.42636,14.25766 0,8.219692 4.53574,13.171235 11.42636,13.723395 v -3.645555 c -4.40864,-0.84105 -7.06062,-4.443334 -7.06062,-10.292716 0,-6.106796 2.89593,-9.605377 7.06062,-10.47871 z m -21.04889,27.640623 h 4.15092 V 18.896216 h -4.15092 z M 270.99818,18.896216 V 46.27116 h 4.1508 V 34.247518 h 4.56735 v -3.435062 h -4.56735 v -8.4455 h 4.56735 v -3.470679 z m -15.09383,0 V 46.27116 h 4.15099 V 34.247518 h 5.47123 v -3.435062 h -5.47123 v -8.4455 h 5.47123 v -3.470679 z m -73.94586,-7.497037 c -11.68987,0 -21.16635,9.476419 -21.16635,21.166364 0,11.689814 9.47648,21.166357 21.16635,21.166357 11.68981,0 21.16636,-9.476543 21.16636,-21.166357 0,-11.689945 -9.47655,-21.166364 -21.16636,-21.166364 z m 0,5.479444 c 8.66389,-3.08e-4 15.68753,7.023025 15.68772,15.68692 -1.9e-4,8.66395 -7.02383,15.687283 -15.68772,15.686913 -8.66357,-6.2e-5 -15.68685,-7.023272 -15.68697,-15.686913 1.2e-4,-8.663587 7.0234,-15.686796 15.68697,-15.68692 z m 13.07426,-3.310617 -0.0364,0.04568 c 0.13463,0.08062 0.26827,0.162654 0.40099,0.246049 z m 4.55926,3.652963 c 3.15889,3.264938 5.24271,7.418642 5.97136,11.902839 l 4.73623,3.795191 -4.83111,3.870803 c -0.83395,4.46642 -3.01531,8.570555 -6.25068,11.760555 l 15.29568,-12.254753 12.28222,9.839938 0.0743,-0.09407 c -3.0942,-3.099691 -5.03716,-7.106728 -5.52383,-11.391604 l -2.38962,-1.91463 2.3266,-1.86358 c 0.30685,-3.510191 1.59241,-6.873833 3.71963,-9.731796 l -10.26006,8.219506 z"
   inkscape:connector-curvature="0"
   sodipodi:nodetypes="scscsscscsccccccccccccccsccscccccccccccccccccccccccccccccsssssccccccccccccccccccccccc" /><g
   id="g25556"
   transform="matrix(0.83609464,0,0,0.83609722,-112.75393,-49.064838)"
   style="fill:#ffffff;fill-opacity:1"><g
     inkscape:export-ydpi="600"
     inkscape:export-xdpi="600"
     style="display:inline;fill:#ffffff;fill-opacity:1"
     transform="matrix(0.78679374,0,0,0.78679374,-509.49223,85.419858)"
     id="g4351"><text
       xml:space="preserve"
       style="font-style:normal;font-variant:normal;font-weight:normal;font-stretch:normal;font-size:12.87px;line-height:125%;font-family:'Noto Sans T Chinese';-inkscape-font-specification:'Noto Sans T Chinese, Normal';text-align:start;letter-spacing:0px;word-spacing:0px;writing-mode:lr-tb;text-anchor:start;display:inline;fill:#ffffff;fill-opacity:1;stroke:none;stroke-width:1px;stroke-linecap:butt;stroke-linejoin:miter;stroke-opacity:1"
       x="860.28436"
       y="46.008289"
       id="text4353"
       transform="scale(0.99331785,1.0067271)"><tspan
         sodipodi:role="line"
         id="tspan4355"
         x="860.28436"
         y="46.008289"
         style="letter-spacing:0.920294px;fill:#ffffff;fill-opacity:1"
         dx="1.0486672">晟鑫科技股份有限公司</tspan></text><text
       xml:space="preserve"
       style="font-style:normal;font-variant:normal;font-weight:normal;font-stretch:normal;font-size:8.78781px;line-height:125%;font-family:'Noto Sans T Chinese';-inkscape-font-specification:'Noto Sans T Chinese, Normal';text-align:start;letter-spacing:0px;word-spacing:0px;writing-mode:lr-tb;text-anchor:start;display:inline;fill:#ffffff;fill-opacity:1;stroke:none;stroke-width:1px;stroke-linecap:butt;stroke-linejoin:miter;stroke-opacity:1"
       x="855.6087"
       y="56.549496"
       id="text4357"><tspan
         sodipodi:role="line"
         id="tspan4359"
         x="855.6087"
         y="56.549496"
         style="letter-spacing:0.54px;fill:#ffffff;fill-opacity:1">OSS Integral Institute Co., Ltd.</tspan></text><g
       id="g4361"
       transform="translate(175.56822,-415.96034)"
       style="display:inline;opacity:1;fill:#ffffff;fill-opacity:1"><path
         id="path4363"
         d="m 675.28427,472.4788 c -3.25047,0 -6.48721,0 -9.74889,0 0,-6.77713 0,-13.5529 0,-20.37076 0.16978,0.10435 0.32813,0.19977 0.48488,0.29816 0.54987,0.3453 1.09378,0.69998 1.65166,1.03178 0.17551,0.10411 0.22471,0.22013 0.22425,0.41532 -0.006,3.09372 -0.005,6.18722 -0.005,9.28094 0,2.17842 0,4.35662 0,6.53527 0,0.11624 0,0.23248 0,0.36063 1.69057,0 3.34292,0 5.01426,0 0,-6.63595 0,-13.25772 0,-19.92295 -0.12379,0 -0.23843,0 -0.35285,0 -6.48012,0 -12.96023,0 -19.44058,0 -1.23611,0 -2.12212,-0.88853 -2.12235,-2.12877 -2.3e-4,-1.83976 -6.9e-4,-3.67929 0,-5.51905 6.8e-4,-1.15831 0.91461,-2.07087 2.07156,-2.07087 10.42507,0 20.85014,-6.9e-4 31.27521,0.005 0.26132,0 0.45034,-0.0506 0.64118,-0.25743 0.51966,-0.56383 1.32421,-0.68808 2.01435,-0.35903 0.68053,0.32425 1.07022,1.03155 0.9931,1.80132 -0.0737,0.73476 -0.61073,1.35304 -1.35075,1.51322 -0.7009,0.15195 -1.29562,-0.0515 -1.78347,-0.58601 -0.0785,-0.0858 -0.22426,-0.1563 -0.3389,-0.1563 -10.16879,-0.007 -20.33757,-0.006 -30.50636,-0.006 -0.54964,0 -0.79883,0.25582 -0.79883,0.8105 -2.3e-4,1.40041 -2.3e-4,2.8006 0,4.20101 0,0.52104 0.23386,0.77343 0.75261,0.80981 0.0819,0.005 0.16475,0.002 0.24713,0.002 6.89223,0 13.78423,0 20.67624,0 0.12677,0 0.25353,0 0.40113,0 -2.3e-4,8.11531 -2.3e-4,16.20796 -2.3e-4,24.31343 z"
         inkscape:connector-curvature="0"
         style="clip-rule:evenodd;display:inline;fill:#ffffff;fill-opacity:1;fill-rule:evenodd" /><path
         id="path4365"
         d="m 665.60265,438.44257 c 0,-3.63879 0,-7.25012 0,-10.88342 3.24108,0 6.4824,0 9.74112,0 0,2.2981 0,4.59139 0,6.93228 -0.14371,-0.0908 -0.26911,-0.17116 -0.39542,-0.2501 -0.58876,-0.36887 -1.1741,-0.74323 -1.76859,-1.1018 -0.15423,-0.0929 -0.20618,-0.19633 -0.20435,-0.37276 0.009,-0.80524 0.004,-1.6107 0.004,-2.41594 0,-0.0993 0,-0.19862 0,-0.32058 -1.67409,0 -3.32256,0 -4.9852,0 0,2.15004 0,4.28704 0,6.45883 0.12608,0 0.24187,0 0.35765,0 6.98262,0 13.96547,0 20.94786,0 1.23818,0 2.11641,0.84528 2.12648,2.09078 0.0149,1.84845 0.0145,3.69737 2.3e-4,5.54582 -0.009,1.2439 -0.88441,2.08232 -2.1306,2.08232 -10.43308,0 -20.86593,4.6e-4 -31.29879,-0.004 -0.2064,0 -0.34507,0.0519 -0.48808,0.21511 -0.52905,0.60455 -1.44938,0.74894 -2.15257,0.36566 -0.72652,-0.3961 -1.0741,-1.21575 -0.86336,-2.03541 0.19291,-0.75009 0.90501,-1.28188 1.71047,-1.28715 0.53683,-0.003 0.98167,0.19405 1.32239,0.60319 0.13043,0.15675 0.26979,0.2048 0.46932,0.20457 10.09419,-0.005 20.18861,-0.004 30.28281,-0.005 0.71553,0 0.95717,-0.23958 0.95717,-0.94825 0,-1.32719 0,-2.65416 0,-3.98089 0,-0.64574 -0.24713,-0.89379 -0.89219,-0.89379 -7.4588,-2.3e-4 -14.91715,0 -22.37596,0 -0.11647,-2.3e-4 -0.23317,-2.3e-4 -0.36452,-2.3e-4 z"
         inkscape:connector-curvature="0"
         style="clip-rule:evenodd;display:inline;fill:#ffffff;fill-opacity:1;fill-rule:evenodd" /><path
         id="path4367"
         d="m 670.43819,424.87823 c -3.91017,-0.0213 -7.16568,-3.23217 -6.9801,-7.35835 0.16087,-3.57334 3.09831,-6.73297 7.15401,-6.65746 3.79668,0.0709 6.94395,3.15529 6.8483,7.18697 -0.0918,3.85914 -3.21797,6.82198 -7.02221,6.82884 z m 4.44174,-7.01717 c -2.2e-4,-2.4132 -1.97477,-4.39094 -4.3525,-4.42526 -2.28367,-0.0331 -4.48246,1.74022 -4.50076,4.41473 -0.017,2.44295 1.88231,4.45067 4.43692,4.44746 2.6823,-0.003 4.4509,-2.20885 4.41634,-4.43693 z"
         inkscape:connector-curvature="0"
         style="clip-rule:evenodd;display:inline;fill:#ffffff;fill-opacity:1;fill-rule:evenodd" /></g></g></g></svg>
