<?xml version="1.0" encoding="UTF-8" standalone="no"?>
<!-- Created with Inkscape (http://www.inkscape.org/) -->

<svg
   width="259.5pt"
   height="49.5pt"
   viewBox="0 0 91.545835 17.462502"
   version="1.1"
   id="svg1"
   xml:space="preserve"
   inkscape:version="1.3.2 (091e20e, 2023-11-25, custom)"
   sodipodi:docname="啟動頁_0522_輸出.svg"
   inkscape:export-filename="啟動頁_0514_輸出.svg"
   inkscape:export-xdpi="150"
   inkscape:export-ydpi="150"
   xmlns:inkscape="http://www.inkscape.org/namespaces/inkscape"
   xmlns:sodipodi="http://sodipodi.sourceforge.net/DTD/sodipodi-0.dtd"
   xmlns="http://www.w3.org/2000/svg"
   xmlns:svg="http://www.w3.org/2000/svg"><sodipodi:namedview
     id="namedview1"
     pagecolor="#ffffff"
     bordercolor="#000000"
     borderopacity="0.25"
     inkscape:showpageshadow="2"
     inkscape:pageopacity="0.0"
     inkscape:pagecheckerboard="0"
     inkscape:deskcolor="#d1d1d1"
     inkscape:document-units="mm"
     inkscape:zoom="0.23320487"
     inkscape:cx="-2129.0292"
     inkscape:cy="-2034.6916"
     inkscape:window-width="2400"
     inkscape:window-height="1261"
     inkscape:window-x="-9"
     inkscape:window-y="-9"
     inkscape:window-maximized="1"
     inkscape:current-layer="layer2"
     showguides="true"
     showgrid="false"
     inkscape:export-bgcolor="#ffffff00"><inkscape:page
       x="-6.3167878e-05"
       y="5.2667372e-05"
       width="91.54583"
       height="17.462502"
       id="page15"
       margin="0"
       bleed="0" /></sodipodi:namedview><defs
     id="defs1"><linearGradient
       id="swatch6"
       inkscape:swatch="solid"><stop
         style="stop-color:#7a858b;stop-opacity:1;"
         offset="0"
         id="stop6" /></linearGradient><linearGradient
       id="linearGradient5052"
       inkscape:swatch="solid"><stop
         style="stop-color:#965c10;stop-opacity:1;"
         offset="0"
         id="stop5054" /></linearGradient></defs><g
     inkscape:groupmode="layer"
     id="layer2"
     inkscape:label="案1"
     transform="translate(-2882.3012,-332.31968)"
     style="display:inline"><g
       id="g19"><g
         id="g4006-0-7-1-2-5-0"
         transform="matrix(0.27340325,0,0,0.27340325,2856.446,-2.9776792)"
         style="display:inline;fill:#e6e6e6"><path
           d="m 148.06878,1266.7892 c -1.1804,0.7211 -2.89039,1.2868 -5.12992,1.6966 l 0.28474,0.4914 c 0.5902,-0.1106 1.328,-0.2785 2.2133,-0.5038 v 0.3808 h 2.3952 v 0.7007 h -4.25659 v 0.5287 h 4.25659 v 1.0878 h -1.52807 c -0.27085,-0.3933 -0.47708,-0.6765 -0.61857,-0.8485 l -0.58808,0.2521 c 0.19404,0.2131 0.34777,0.412 0.46096,0.5964 h -2.27376 v 0.5038 h 9.66556 v -0.5038 h -2.20142 c 0.15361,-0.2131 0.27918,-0.4036 0.3762,-0.5716 l -0.56999,-0.2335 c -0.26276,0.4015 -0.45492,0.6699 -0.57619,0.8051 h -1.51567 v -1.0878 h 4.21421 v -0.5287 h -4.21421 v -0.7007 h 2.36471 v -0.4057 c 0.83275,0.2213 1.59655,0.3892 2.29185,0.5039 l 0.24857,-0.5281 c -2.18698,-0.3606 -3.75948,-0.8053 -4.71754,-1.3338 0.0445,-0.025 0.10345,-0.076 0.17621,-0.1535 z m 12.5119,0.049 c -1.22891,0.5162 -2.65796,0.8646 -4.28708,1.0449 l 0.35192,0.6268 c 0.85296,-0.1393 1.45327,-0.2477 1.80092,-0.3255 v 1.8376 h -2.41329 v 0.6449 h 2.34663 c -0.50935,1.3602 -1.30778,2.6775 -2.3952,3.9517 l 0.44855,0.5535 c 0.81253,-1.0366 1.48375,-2.0939 2.01331,-3.1714 v 5.8999 h 0.63045 v -5.6968 c 0.54169,0.5859 1.00071,1.1837 1.37666,1.7942 l 0.46096,-0.5287 c -0.44468,-0.6678 -1.05742,-1.3888 -1.83762,-2.1631 v -0.6393 h 1.83762 v -0.6449 h -1.83762 v -2.0097 c 0.75595,-0.1885 1.399,-0.4037 1.92857,-0.6454 z m 40.75048,0.05 c -0.6953,1.7945 -1.50185,3.1197 -2.41949,3.976 l 0.55811,0.4057 c 0.97019,-0.971 1.80705,-2.3599 2.51044,-4.1667 z m 12.91239,0 c -0.24255,0.5572 -0.4829,1.053 -0.7214,1.4873 h -4.26279 v 0.6511 h 3.88658 c -0.94189,1.6388 -2.27784,3.0461 -4.00802,4.222 l 0.49713,0.4981 c 0.69126,-0.467 1.43934,-1.1044 2.24379,-1.9115 0.0121,0.3769 0.0181,0.6885 0.0181,0.9343 0,2.3271 -0.51368,3.9534 -1.54047,4.8793 l 0.61857,0.369 c 0.69935,-0.7211 1.15836,-1.6368 1.37666,-2.7471 h 6.11229 v 1.6407 c 0,0.1557 -0.0649,0.2641 -0.19431,0.3255 -0.12531,0.057 -0.52751,0.086 -1.20664,0.086 -0.4285,0 -0.8307,-0.016 -1.20665,-0.049 l 0.30954,0.6512 c 0.31532,0.025 0.63633,0.037 0.96377,0.037 0.857,0 1.401,-0.07 1.63143,-0.2093 0.23042,-0.1352 0.34571,-0.3868 0.34571,-0.7555 v -6.5578 h -6.1066 c 0.30722,-0.4179 0.61252,-0.8889 0.9157,-1.4133 h 6.14898 v -0.6511 h -5.78517 c 0.18191,-0.3278 0.39246,-0.7604 0.63096,-1.2971 z m -43.10279,0.012 v 2.219 h -1.77664 v 0.6511 h 1.77664 v 2.8334 c -0.55787,0.1926 -1.18253,0.3931 -1.87379,0.6021 l 0.22427,0.5963 c 0.65084,-0.1885 1.2008,-0.3606 1.64952,-0.5162 v 3.6256 c 0,0.127 -0.0406,0.217 -0.12144,0.2702 -0.0808,0.049 -0.29521,0.074 -0.64286,0.074 -0.22233,0 -0.45888,-0.01 -0.70952,-0.019 l 0.26097,0.7008 c 0.86105,0.025 1.38449,-0.051 1.57045,-0.2274 0.18595,-0.1721 0.27905,-0.3768 0.27905,-0.6144 v -4.0499 c 0.56595,-0.2213 1.08723,-0.4407 1.56425,-0.6579 l -0.18811,-0.602 c -0.56999,0.2622 -1.02849,0.4464 -1.37614,0.5529 v -2.5688 h 1.40043 v -0.6511 h -1.40043 v -2.219 z m 5.28133,0 v 1.8805 h -2.74712 v 0.6392 h 2.74712 v 2.0526 h -2.5709 v 0.6393 h 0.56999 c 0.40424,1.3889 1.02079,2.5609 1.8495,3.5155 -1.12381,0.7744 -2.33255,1.3643 -3.62614,1.7699 0.12936,0.209 0.2203,0.35 0.27285,0.4238 0.0525,0.078 0.0845,0.1231 0.0966,0.1354 0.0121,0.012 0.0186,0.02 0.0186,0.024 0.004,0 0.008,0 0.0119,0 1.40273,-0.5204 2.63151,-1.1551 3.68659,-1.9048 0.75595,0.6924 1.79092,1.3313 3.10472,1.9172 l 0.37001,-0.5716 c -1.28147,-0.508 -2.26989,-1.0896 -2.9652,-1.7451 0.46084,-0.3851 0.87496,-0.844 1.24282,-1.3766 0.37191,-0.5368 0.68152,-1.2662 0.92811,-2.188 v -0.6393 h -2.32234 v -2.0526 h 2.89233 v -0.6392 h -2.89233 v -1.8805 z m -11.4329,0.012 v 7.2766 l -4.13566,0.6449 0.0486,0.6516 4.08709,-0.6268 v 3.0546 h 0.65474 v -3.159 l 1.26763,-0.1969 -0.0243,-0.6573 -1.24334,0.1659 v -7.1536 z m 33.85582,0 c -0.88935,2.2124 -1.89401,3.8371 -3.01377,4.8736 l 0.30954,0.6511 c 0.50935,-0.4261 1.05068,-1.0834 1.62471,-1.9725 v 7.3991 h 0.64905 v -8.493 l 0.41238,-0.8419 c 0.27893,-0.5694 0.49328,-1.0447 0.64286,-1.4257 z m 40.6895,0.025 c -0.70743,2.237 -1.97247,3.9822 -3.79563,5.2359 l 0.49713,0.5038 c 1.89996,-1.3848 3.21587,-3.2221 3.94756,-5.5123 z m 2.40141,0.1535 v 0.6821 h 0.83096 c 0.88934,2.2534 2.07752,3.8717 3.56515,4.855 l 0.41858,-0.5529 c -1.58869,-1.0489 -2.74708,-2.7104 -3.47472,-4.9842 z m -38.93716,0.049 v 0.633 h 0.95188 c 0.70339,1.6102 1.52401,2.7801 2.46187,3.5094 l 0.44286,-0.5287 c -0.9904,-0.7375 -1.8213,-1.9421 -2.49235,-3.6137 z m 46.19201,0.012 v 0.6454 h 9.56273 v 9.0217 c 0,0.1762 -0.0525,0.293 -0.15762,0.3504 -0.1051,0.053 -0.37032,0.08 -0.79478,0.08 -0.40425,0 -0.95965,-0.024 -1.66708,-0.073 l 0.22427,0.7002 c 0.53765,0.033 0.97828,0.049 1.32189,0.049 0.79636,0 1.28354,-0.074 1.46141,-0.2212 0.18191,-0.1434 0.27285,-0.3787 0.27285,-0.7064 v -9.8454 z m -65.61666,0.062 v 4.9961 c 0,2.1099 -0.3015,3.8577 -0.90382,5.2425 l 0.54001,0.4238 c 0.39212,-0.8645 0.67306,-2.0544 0.84285,-3.5703 l 0.34519,0.3622 c 0.73573,-0.762 1.27378,-1.3436 1.61334,-1.7451 v 3.9698 c 0,0.2171 -0.10933,0.3361 -0.32763,0.3565 -0.30722,0.025 -0.63471,0.023 -0.98236,-0.01 l 0.27285,0.6393 c 0.43658,0.025 0.76787,0.017 0.99425,-0.024 0.45276,-0.086 0.67955,-0.3629 0.67955,-0.8299 v -9.8144 z m 43.92135,0.01 v 9.7281 c 0,0.1352 -0.0444,0.252 -0.13333,0.3503 l 0.29714,0.6393 c 0.89339,-0.2458 1.75028,-0.5427 2.5709,-0.8909 l -0.0486,-0.6946 c -0.69935,0.3196 -1.37436,0.5717 -2.0252,0.7561 v -4.8798 h 4.50515 v -5.0085 z m -39.2343,0.018 v 1.1617 c 0,0.6637 -0.0769,1.2289 -0.23048,1.696 -0.21021,0.6227 -0.56205,1.1064 -1.05523,1.4505 l 0.58239,0.3747 c 0.46893,-0.3606 0.8143,-0.8747 1.03663,-1.5426 0.20212,-0.5981 0.30334,-1.2923 0.30334,-2.083 v -0.4181 h 2.23759 v 2.6794 c 0,0.2295 0.0726,0.4263 0.21808,0.5902 0.14957,0.1761 0.33577,0.264 0.5581,0.264 h 1.43712 v -0.6206 h -1.26142 c -0.0728,0 -0.14367,-0.037 -0.21239,-0.1106 -0.0647,-0.074 -0.0966,-0.1553 -0.0966,-0.2454 v -3.1962 z m 34.88056,0.01 v 10.6691 h 0.63045 v -10.0299 h 1.95285 c -0.39616,1.3234 -0.72365,2.3354 -0.98237,3.036 0.74786,0.9136 1.1219,1.821 1.1219,2.7223 0,0.4015 -0.079,0.6762 -0.23668,0.8237 -0.15766,0.1434 -0.46511,0.215 -0.92191,0.215 -0.21021,0 -0.41808,-0.01 -0.62425,-0.024 l 0.26045,0.6635 c 0.86913,0.037 1.4494,-0.088 1.74046,-0.3746 0.29106,-0.2868 0.43667,-0.6926 0.43667,-1.217 0,-0.9095 -0.36212,-1.8969 -1.08572,-2.9621 0.44467,-1.2332 0.74832,-2.1942 0.91002,-2.8825 v -0.6392 z m -92.49048,0.012 v 3.6075 h 8.34367 v -3.6075 z m 17.478,0.1969 c 0.79637,0.3851 1.53417,0.6719 2.2133,0.8604 h -4.37182 c 0.90955,-0.2991 1.62896,-0.5859 2.15852,-0.8604 z m 13.86427,0.1901 -0.36949,0.5044 c 0.79637,0.5408 1.53797,1.1918 2.22519,1.9539 l 0.39429,-0.5592 c -0.73168,-0.7784 -1.48192,-1.4115 -2.24999,-1.8991 z m 22.19296,0.2155 h 1.82521 v 2.8758 c -0.50126,-0.5408 -1.00683,-1.0055 -1.51618,-1.3947 l -0.30903,0.3131 z m -52.85,0.012 h 6.9913 v 0.8542 h -6.9913 z m 96.81993,0 h 3.82612 v 1.4754 h -3.82612 z m -96.81993,1.4506 h 6.9913 v 0.9281 h -6.9913 z m 118.24239,0.172 -0.0119,0.6331 h 7.87032 v -0.6331 z m -65.39239,0.4424 c 0.67914,0.5613 1.17011,1.0307 1.4733,1.4077 l 0.35191,-0.3075 v 0.971 c -0.68722,0.8276 -1.32596,1.5097 -1.91616,2.0464 0.0606,-0.5613 0.091,-1.1471 0.091,-1.7575 z m 43.96993,0.049 h 3.82612 v 1.5978 h -3.82612 z m 12.76098,0.5901 c -1.15211,2.8065 -2.36085,4.9638 -3.62614,6.4715 l 0.18759,0.6392 c 2.31633,-0.2048 4.64718,-0.6148 6.99182,-1.2294 0.25467,0.4179 0.51126,0.9505 0.76998,1.5979 l 0.58187,-0.338 c -0.59828,-1.4135 -1.47141,-2.9213 -2.61948,-4.5232 l -0.57567,0.3441 c 0.63871,0.885 1.14376,1.6613 1.51567,2.3291 -2.32038,0.5981 -4.28099,0.955 -5.88181,1.0697 1.14402,-1.5364 2.23962,-3.5647 3.28662,-6.0844 z m -79.28147,0.1416 -0.41238,0.5039 c 1.00254,0.7497 1.76469,1.4871 2.28617,2.2122 l 0.44855,-0.5038 c -0.58212,-0.7703 -1.35619,-1.5076 -2.32234,-2.2123 z m -24.03006,0.338 -0.23616,0.4914 c 0.57403,0.1229 1.10344,0.2829 1.58853,0.4796 l 0.19999,-0.5044 c -0.36382,-0.168 -0.88131,-0.3232 -1.55236,-0.4666 z m 74.94582,0 h 5.9123 v 1.4376 h -5.9123 z m -76.88575,0.1535 c 0,0.2991 0.01,0.5959 0.03,0.8909 h -5.45703 v 2.6918 c 0,0.9874 -0.28094,1.8989 -0.84284,2.7347 l 0.5333,0.3995 c 0.61041,-0.9505 0.9379,-2.0994 0.98237,-3.4474 h 3.09231 c -0.0283,0.9301 -0.0824,1.4811 -0.16329,1.6532 -0.0768,0.1679 -0.19642,0.2785 -0.35812,0.3317 -0.1617,0.053 -0.72954,0.063 -1.70377,0.03 l 0.21239,0.6393 c 0.90955,0 1.46547,-0.021 1.6676,-0.062 0.20212,-0.041 0.36992,-0.1373 0.50332,-0.2889 0.13341,-0.1557 0.24438,-0.4546 0.33332,-0.8971 0.0889,-0.4425 0.14144,-1.1083 0.15761,-1.9973 h -3.75326 v -1.1984 h 4.85707 c 0.13744,1.2988 0.4303,2.4503 0.87902,3.4541 -0.52553,0.4424 -1.20866,0.8866 -2.04949,1.3332 l 0.43666,0.461 c 0.65488,-0.3278 1.29527,-0.7457 1.92185,-1.2537 0.5902,0.8235 1.18075,1.2351 1.77095,1.2351 0.63871,0 1.15024,-0.5958 1.53428,-1.788 l -0.54622,-0.3814 c -0.32744,0.9997 -0.66685,1.4996 -1.01855,1.4996 -0.38807,0 -0.79839,-0.3441 -1.23093,-1.0325 0.62254,-0.6063 1.25748,-1.4747 1.90428,-2.6055 l -0.54571,-0.3137 c -0.54169,1.0161 -1.09761,1.805 -1.66759,2.3663 -0.36383,-0.6883 -0.60849,-1.6798 -0.73381,-2.9745 h 3.72897 v -0.5901 h -3.77755 c -0.0323,-0.1762 -0.0486,-0.473 -0.0486,-0.8909 z m 63.94907,0.3255 v 0.615 h 2.44998 c -0.0808,2.196 -1.12394,3.937 -3.12901,5.2234 l 0.44855,0.5411 c 1.11572,-0.7703 1.92443,-1.6123 2.42569,-2.526 0.50531,-0.9177 0.8144,-1.9971 0.92759,-3.2385 h 2.47996 c 0.0202,0.8358 -0.006,1.7389 -0.0786,2.7099 -0.0728,0.971 -0.14963,1.5631 -0.23048,1.7761 -0.0808,0.2131 -0.18802,0.3688 -0.32143,0.4672 -0.1334,0.094 -0.40838,0.141 -0.82475,0.141 -0.3234,0 -0.67473,-0.018 -1.05472,-0.055 l 0.21188,0.6641 c 0.22233,0.029 0.45888,0.043 0.70951,0.043 0.55786,0 0.95841,-0.066 1.20096,-0.1969 0.24255,-0.127 0.42011,-0.2907 0.5333,-0.4914 0.11319,-0.2008 0.22037,-0.7497 0.32143,-1.647 0.10511,-0.8972 0.15761,-1.8824 0.15761,-2.9559 0,-0.3441 -0.006,-0.7009 -0.0181,-1.0697 z m 50.74625,0.2274 v 3.8225 h 6.22133 v -3.8225 z m -104.88765,0.1106 c -0.65084,0.6842 -1.56672,1.2847 -2.74712,1.8009 l 0.32763,0.4791 c 0.33957,-0.1516 0.60047,-0.2764 0.78238,-0.3747 v 0.3747 h 1.27899 v 0.7684 h -2.10375 v 0.5286 h 2.10375 v 1.7638 c -1.09551,0.1393 -1.89989,0.2192 -2.41329,0.2397 l 0.12764,0.5282 c 1.31381,-0.1311 2.94909,-0.338 4.90565,-0.6207 l 0.0119,-0.5529 c -0.79232,0.1475 -1.47545,0.248 -2.04949,0.3013 v -1.6594 h 2.03761 v -0.5286 h -2.03761 v -0.7684 h 1.3038 v -0.5039 h -2.91662 c 0.55786,-0.3564 1.02448,-0.6843 1.40043,-0.9834 0.71148,0.3319 1.37077,0.7192 1.97714,1.1617 l 0.32092,-0.479 c -0.23851,-0.1721 -0.86266,-0.5289 -1.87328,-1.0697 0.0566,-0.045 0.12915,-0.1125 0.21808,-0.2026 z m 5.16609,0 c -0.77211,0.8317 -1.64524,1.4527 -2.61948,1.8624 l 0.32143,0.4672 c 0.34765,-0.1516 0.65079,-0.3116 0.90951,-0.4796 v 0.43 h 1.23713 v 0.7684 h -2.15904 v 0.5286 h 2.15904 v 1.7638 h -2.47995 v 0.5038 h 5.56038 V 1277.2 h -2.48047 v -1.7638 h 2.33474 v -0.5162 h -2.33474 v -0.7684 h 1.55236 v -0.2517 c 0.23851,0.1065 0.44906,0.1902 0.63097,0.2517 l 0.28474,-0.5163 c -1.11572,-0.3892 -1.9385,-0.8418 -2.46807,-1.358 0.0404,-0.037 0.0973,-0.1043 0.17002,-0.2026 z m 24.46673,0.2398 h 3.6623 c -0.33552,1.2619 -1.00242,2.2986 -2.00091,3.1099 -0.74785,-0.8522 -1.30161,-1.889 -1.66139,-3.1099 z m 12.14189,0.1292 v 0.6511 h 0.41858 c 0.58616,1.3274 1.25141,2.3663 1.99523,3.1161 -0.81658,0.6104 -1.75086,1.063 -2.8019,1.358 l 0.41238,0.584 c 1.12381,-0.4343 2.06784,-0.9385 2.83187,-1.5121 0.86509,0.6596 1.86379,1.1722 2.99568,1.5369 l 0.36949,-0.6274 c -1.09147,-0.2745 -2.03499,-0.7145 -2.83136,-1.3208 0.84892,-0.8522 1.45519,-1.8974 1.81901,-3.1347 v -0.6511 z m 63.79817,0.172 h 4.86276 v 2.5198 h -4.86276 z m -100.34633,0.2517 c 0.2951,0.2745 0.77252,0.6024 1.43144,0.9834 h -2.72283 c 0.33957,-0.213 0.76991,-0.5409 1.29139,-0.9834 z m 37.66385,0.2274 h 3.43855 c -0.39212,1.139 -0.93396,2.0405 -1.62522,2.7042 -0.71147,-0.6596 -1.3161,-1.5611 -1.81333,-2.7042 z m 44.4252,0.093 c -0.51744,0.59 -1.15238,1.1389 -1.90428,1.6469 -0.2668,-0.5203 -0.47303,-1.0487 -0.61856,-1.5854 l -0.60617,0.264 c 0.54978,1.9871 1.72008,3.5523 3.5109,4.6954 l 0.44855,-0.5654 c -1.14402,-0.6596 -1.95005,-1.4153 -2.41897,-2.2675 0.75594,-0.5204 1.45099,-1.1087 2.08566,-1.7643 z m -20.2737,0.1597 h 5.94848 v 1.512 h -6.00946 c 0.0404,-0.3605 0.061,-0.8647 0.061,-1.512 z m -65.57481,2.5445 c -0.10914,0.1434 -0.31702,0.395 -0.62425,0.7555 l 0.49713,0.2765 c 0.21425,-0.1926 0.44268,-0.4568 0.68523,-0.7927 z m -3.14709,0.024 -0.49093,0.2889 c 0.23851,0.2786 0.47721,0.6107 0.71572,0.9958 l 0.49713,-0.2889 c -0.23851,-0.3892 -0.47937,-0.7213 -0.72192,-0.9958 z m 5.30613,0 -0.49712,0.3137 c 0.25063,0.2663 0.48666,0.5652 0.709,0.8971 l 0.50953,-0.2765 c -0.16574,-0.2581 -0.40609,-0.5697 -0.72141,-0.9343 z m 3.329,0.012 c -0.14553,0.2909 -0.35772,0.6225 -0.63665,0.9953 l 0.49712,0.2646 c 0.26681,-0.336 0.49092,-0.6802 0.67283,-1.0325 z"
           style="font-size:2.84989px;line-height:125%;font-family:'Noto Sans T Chinese';-inkscape-font-specification:'Noto Sans T Chinese, Normal';letter-spacing:0px;word-spacing:0px;display:inline;fill:#e6e6e6;fill-opacity:1;stroke-width:0.259364px"
           id="path4006-0-6-0-9-3-4" /><path
           d="m 182.81033,1280.7496 v 6.488 h 0.75137 v -6.488 z m 78.36162,0 v 1.8268 c 0,0.085 0.006,0.2024 0.0171,0.3503 0.0114,0.1423 0.0227,0.2501 0.0341,0.324 h -0.0512 c -0.14227,-0.1878 -0.32736,-0.3471 -0.555,-0.478 -0.22195,-0.1309 -0.50912,-0.1963 -0.86196,-0.1963 -0.56911,0 -1.02745,0.2021 -1.3746,0.6061 -0.34146,0.3984 -0.51211,0.9903 -0.51211,1.7756 0,0.7854 0.17065,1.3773 0.51211,1.7756 0.34146,0.3927 0.79671,0.5891 1.36581,0.5891 0.35853,0 0.65189,-0.068 0.87953,-0.2046 0.22764,-0.1366 0.40964,-0.3021 0.54622,-0.4956 h 0.0341 l 0.1111,0.615 h 0.60617 v -6.488 z m -55.06795,0.1964 c -0.12521,0 -0.23038,0.04 -0.31575,0.1193 -0.0854,0.074 -0.12815,0.1936 -0.12815,0.3587 0,0.165 0.0428,0.2877 0.12815,0.3674 0.0854,0.074 0.19054,0.1106 0.31575,0.1106 0.11382,0 0.21384,-0.037 0.2992,-0.1106 0.0911,-0.08 0.13643,-0.2024 0.13643,-0.3674 0,-0.1651 -0.0454,-0.2847 -0.13643,-0.3587 -0.0854,-0.08 -0.18538,-0.1193 -0.2992,-0.1193 z m -74.1624,0.1023 c -0.6374,0 -1.16637,0.1309 -1.5875,0.3927 -0.41545,0.2618 -0.72582,0.6289 -0.93069,1.1013 -0.20488,0.4666 -0.30748,1.01 -0.30748,1.6304 0,0.6317 0.1026,1.1838 0.30748,1.6562 0.20487,0.4723 0.51524,0.8394 0.93069,1.1012 0.42113,0.2618 0.94753,0.3927 1.57923,0.3927 0.60894,0 1.1209,-0.1309 1.53634,-0.3927 0.42114,-0.2618 0.73718,-0.6258 0.94775,-1.0924 0.21626,-0.4724 0.32452,-1.0246 0.32452,-1.6563 0,-0.6317 -0.10826,-1.1807 -0.32452,-1.6474 -0.21057,-0.4724 -0.52352,-0.8369 -0.93896,-1.093 -0.41545,-0.2618 -0.92792,-0.3927 -1.53686,-0.3927 z m 6.30401,0.01 c -0.38699,0 -0.72572,0.062 -1.01596,0.1876 -0.29024,0.1252 -0.51761,0.3046 -0.68265,0.5379 -0.16504,0.2333 -0.24753,0.5092 -0.24753,0.8279 0,0.4723 0.13044,0.8451 0.39223,1.1183 0.26178,0.2731 0.65464,0.5036 1.17822,0.6914 0.36422,0.1366 0.65191,0.2618 0.86248,0.3757 0.21057,0.1138 0.35853,0.2391 0.4439,0.3757 0.0854,0.1365 0.12764,0.3046 0.12764,0.5038 0,0.3016 -0.11652,0.5403 -0.34985,0.7168 -0.23333,0.1764 -0.57464,0.2651 -1.02423,0.2651 -0.32438,0 -0.64043,-0.037 -0.94774,-0.1112 -0.30163,-0.074 -0.55477,-0.1564 -0.75965,-0.2475 v 0.7338 c 0.1935,0.091 0.4353,0.1622 0.72554,0.2134 0.29024,0.051 0.60629,0.077 0.94775,0.077 0.66585,0 1.19482,-0.151 1.5875,-0.4526 0.39268,-0.3017 0.58911,-0.7224 0.58911,-1.263 0,-0.3187 -0.0655,-0.5837 -0.19637,-0.7943 -0.1252,-0.2105 -0.31287,-0.3894 -0.56328,-0.5374 -0.24471,-0.1537 -0.54632,-0.296 -0.90485,-0.4269 -0.33008,-0.1195 -0.59199,-0.2334 -0.78548,-0.3415 -0.1935,-0.1139 -0.3327,-0.2391 -0.41806,-0.3757 -0.0854,-0.1366 -0.12816,-0.3073 -0.12816,-0.5121 0,-0.2675 0.0964,-0.481 0.2899,-0.6403 0.1935,-0.1651 0.48118,-0.2475 0.86248,-0.2475 0.26179,0 0.51803,0.031 0.76843,0.094 0.25041,0.063 0.48086,0.1394 0.69143,0.2305 l 0.23875,-0.6573 c -0.23333,-0.1025 -0.48905,-0.185 -0.76791,-0.2476 -0.27886,-0.063 -0.58356,-0.094 -0.91364,-0.094 z m 5.21105,0 c -0.38699,0 -0.72572,0.062 -1.01596,0.1876 -0.29024,0.1252 -0.51761,0.3046 -0.68265,0.5379 -0.16504,0.2333 -0.24753,0.5092 -0.24753,0.8279 0,0.4723 0.13096,0.8451 0.39274,1.1183 0.26179,0.2731 0.65414,0.5036 1.17771,0.6914 0.36423,0.1366 0.65191,0.2618 0.86248,0.3757 0.21057,0.1138 0.35854,0.2391 0.4439,0.3757 0.0854,0.1365 0.12764,0.3046 0.12764,0.5038 0,0.3016 -0.11652,0.5403 -0.34985,0.7168 -0.23333,0.1764 -0.57463,0.2651 -1.02423,0.2651 -0.32438,0 -0.64043,-0.037 -0.94774,-0.1112 -0.30162,-0.074 -0.55477,-0.1564 -0.75964,-0.2475 v 0.7338 c 0.19349,0.091 0.43529,0.1622 0.72553,0.2134 0.29024,0.051 0.60629,0.077 0.94775,0.077 0.66585,0 1.19482,-0.151 1.5875,-0.4526 0.39268,-0.3017 0.58911,-0.7224 0.58911,-1.263 0,-0.3187 -0.0655,-0.5837 -0.19637,-0.7943 -0.1252,-0.2105 -0.31287,-0.3894 -0.56327,-0.5374 -0.24472,-0.1537 -0.54632,-0.296 -0.90486,-0.4269 -0.33008,-0.1195 -0.59199,-0.2334 -0.78548,-0.3415 -0.19349,-0.1139 -0.3327,-0.2391 -0.41806,-0.3757 -0.0854,-0.1366 -0.12816,-0.3073 -0.12816,-0.5121 0,-0.2675 0.0969,-0.481 0.29042,-0.6403 0.1935,-0.1651 0.48067,-0.2475 0.86196,-0.2475 0.26179,0 0.51803,0.031 0.76843,0.094 0.25041,0.063 0.48087,0.1394 0.69143,0.2305 l 0.23875,-0.6573 c -0.23333,-0.1025 -0.48905,-0.185 -0.76791,-0.2476 -0.27886,-0.063 -0.58356,-0.094 -0.91364,-0.094 z m 88.80956,0 c -0.62601,0 -1.15807,0.1335 -1.59628,0.401 -0.43821,0.2618 -0.77127,0.6289 -0.99891,1.1012 -0.22195,0.4667 -0.33279,1.0075 -0.33279,1.6221 0,0.6374 0.10208,1.1922 0.30696,1.6645 0.21056,0.4724 0.52351,0.8369 0.93896,1.093 0.41544,0.2561 0.93359,0.3839 1.55391,0.3839 0.33577,0 0.62294,-0.02 0.86196,-0.06 0.24471,-0.04 0.48084,-0.1022 0.70848,-0.1876 v -0.6661 c -0.23333,0.068 -0.46946,0.1255 -0.70848,0.1711 -0.23902,0.045 -0.48907,0.068 -0.75086,0.068 -0.69999,0 -1.22639,-0.2191 -1.57923,-0.6574 -0.34715,-0.4439 -0.5209,-1.0445 -0.5209,-1.8014 0,-0.7626 0.18767,-1.3627 0.56327,-1.8009 0.37561,-0.4382 0.89066,-0.6573 1.54513,-0.6573 0.27317,0 0.52373,0.034 0.75137,0.1023 0.23334,0.068 0.44369,0.1451 0.63149,0.2305 l 0.30748,-0.6486 c -0.47805,-0.239 -1.03847,-0.3586 -1.68156,-0.3586 z m -82.97116,0.085 v 0.4439 l 0.71675,0.1706 v 4.8746 l -0.71675,0.1623 v 0.4439 h 2.20245 v -0.4439 l -0.71727,-0.1623 v -4.8746 l 0.71727,-0.1706 v -0.4439 z m 38.6023,0 v 0.4439 l 0.71727,0.1706 v 4.8746 l -0.71727,0.1623 v 0.4439 h 2.20245 v -0.4439 l -0.71676,-0.1623 v -4.8746 l 0.71676,-0.1706 v -0.4439 z m 61.72543,0 v 6.0953 h 3.43183 v -0.6832 h -2.6634 v -5.4121 z m -90.35831,0.4698 -0.29869,0.9731 -0.65733,0.2986 v 0.3587 h 0.64906 v 2.6634 c 0,0.3699 0.0624,0.6571 0.18759,0.8619 0.1252,0.2049 0.2876,0.3503 0.48679,0.4357 0.20487,0.08 0.42657,0.1193 0.66559,0.1193 0.13658,0 0.27888,-0.014 0.42685,-0.043 0.14796,-0.023 0.2619,-0.054 0.34158,-0.094 v -0.572 c -0.074,0.028 -0.17091,0.051 -0.29042,0.068 -0.11951,0.017 -0.23603,0.026 -0.34985,0.026 -0.21057,0 -0.38432,-0.065 -0.5209,-0.1964 -0.13089,-0.1365 -0.19637,-0.3443 -0.19637,-0.6232 v -2.6463 h 1.32343 v -0.5804 h -1.32343 v -1.05 z m 43.21648,0 -0.29869,0.9731 -0.65732,0.2986 v 0.3587 h 0.64854 v 2.6634 c 0,0.3699 0.0624,0.6571 0.18758,0.8619 0.12521,0.2049 0.28761,0.3503 0.48679,0.4357 0.20488,0.08 0.42709,0.1193 0.66611,0.1193 0.13659,0 0.27888,-0.014 0.42685,-0.043 0.14797,-0.023 0.26139,-0.054 0.34107,-0.094 v -0.572 c -0.074,0.028 -0.1704,0.051 -0.28991,0.068 -0.11951,0.017 -0.23654,0.026 -0.35037,0.026 -0.21056,0 -0.38379,-0.065 -0.52038,-0.1964 -0.13089,-0.1365 -0.19637,-0.3443 -0.19637,-0.6232 v -2.6463 h 1.32292 v -0.5804 h -1.32292 v -1.05 z m 6.33295,0 -0.29869,0.9731 -0.65733,0.2986 v 0.3587 h 0.64906 v 2.6634 c 0,0.3699 0.0624,0.6571 0.18759,0.8619 0.1252,0.2049 0.2876,0.3503 0.48679,0.4357 0.20488,0.08 0.42657,0.1193 0.66559,0.1193 0.13659,0 0.27888,-0.014 0.42685,-0.043 0.14796,-0.023 0.26191,-0.054 0.34158,-0.094 v -0.572 c -0.074,0.028 -0.17091,0.051 -0.29042,0.068 -0.11951,0.017 -0.23603,0.026 -0.34985,0.026 -0.21057,0 -0.38432,-0.065 -0.5209,-0.1964 -0.13089,-0.1365 -0.19637,-0.3443 -0.19637,-0.6232 v -2.6463 h 1.32343 v -0.5804 h -1.32343 v -1.05 z m 9.40666,0 -0.29869,0.9731 -0.65732,0.2986 v 0.3587 h 0.64854 v 2.6634 c 0,0.3699 0.0629,0.6571 0.1881,0.8619 0.1252,0.2049 0.28709,0.3503 0.48627,0.4357 0.20488,0.08 0.42709,0.1193 0.66611,0.1193 0.13659,0 0.27888,-0.014 0.42685,-0.043 0.14797,-0.023 0.26139,-0.054 0.34106,-0.094 v -0.572 c -0.074,0.028 -0.17039,0.051 -0.2899,0.068 -0.11951,0.017 -0.23655,0.026 -0.35037,0.026 -0.21057,0 -0.38379,-0.065 -0.52038,-0.1964 -0.13089,-0.1365 -0.19637,-0.3443 -0.19637,-0.6232 v -2.6463 h 1.32292 v -0.5804 h -1.32292 v -1.05 z m 36.66495,0 -0.29921,0.9731 -0.65733,0.2986 v 0.3587 h 0.64906 v 2.6634 c 0,0.3699 0.0624,0.6571 0.18759,0.8619 0.1252,0.2049 0.2876,0.3503 0.48679,0.4357 0.20487,0.08 0.42657,0.1193 0.66559,0.1193 0.13658,0 0.27888,-0.014 0.42685,-0.043 0.14796,-0.023 0.2619,-0.054 0.34158,-0.094 v -0.572 c -0.074,0.028 -0.17091,0.051 -0.29042,0.068 -0.11951,0.017 -0.23603,0.026 -0.34985,0.026 -0.21057,0 -0.3838,-0.065 -0.52038,-0.1964 -0.1309,-0.1365 -0.19637,-0.3443 -0.19637,-0.6232 v -2.6463 h 1.32291 v -0.5804 h -1.32291 v -1.05 z m -122.94392,0.1106 c 0.68861,0 1.19232,0.2191 1.51102,0.6573 0.31869,0.4325 0.478,1.0331 0.478,1.8014 0,0.7683 -0.16188,1.3746 -0.48627,1.8185 -0.3187,0.4382 -0.82241,0.6574 -1.51102,0.6574 -0.68861,0 -1.19542,-0.2192 -1.5198,-0.6574 -0.32439,-0.4439 -0.48628,-1.0502 -0.48628,-1.8185 0,-0.7683 0.16189,-1.3689 0.48628,-1.8014 0.32438,-0.4382 0.83376,-0.6573 1.52807,-0.6573 z m 23.35826,0.8537 c -0.29024,0 -0.56607,0.06 -0.82785,0.1793 -0.26179,0.1138 -0.46699,0.2901 -0.61495,0.5292 h -0.0424 l -0.1111,-0.6228 h -0.60617 v 4.5755 h 0.75138 v -2.3735 c 0,-0.535 0.0964,-0.9443 0.2899,-1.2289 0.1935,-0.2845 0.54357,-0.4268 1.05007,-0.4268 0.68292,0 1.02474,0.3671 1.02474,1.1012 v 2.928 h 0.74259 v -2.9792 c 0,-0.5861 -0.13972,-1.013 -0.41858,-1.2805 -0.27886,-0.2675 -0.69131,-0.4015 -1.23765,-0.4015 z m 8.97103,0 c -0.40406,0 -0.7598,0.097 -1.06712,0.2904 -0.30162,0.1935 -0.53775,0.4693 -0.70848,0.8278 -0.16504,0.3586 -0.24753,0.7886 -0.24753,1.2894 0,0.5122 0.0913,0.9416 0.27337,1.2888 0.1878,0.3471 0.44661,0.609 0.77669,0.7855 0.33008,0.1764 0.71418,0.2645 1.15239,0.2645 0.313,0 0.58316,-0.026 0.8108,-0.077 0.22764,-0.045 0.4581,-0.1192 0.69143,-0.2216 v -0.6574 c -0.23902,0.1025 -0.47206,0.1819 -0.6997,0.2388 -0.22195,0.051 -0.47818,0.077 -0.76843,0.077 -0.45528,0 -0.81102,-0.1336 -1.06711,-0.401 -0.25041,-0.2732 -0.38136,-0.6692 -0.39274,-1.187 h 3.13314 v -0.4522 c 0,-0.4155 -0.0768,-0.7769 -0.23048,-1.0842 -0.14797,-0.313 -0.3645,-0.5548 -0.64906,-0.7255 -0.28455,-0.1707 -0.62018,-0.2563 -1.00717,-0.2563 z m 5.194,0 c -0.58618,0 -1.04709,0.2165 -1.38286,0.649 -0.33008,0.4268 -0.49506,1.0043 -0.49506,1.7327 0,0.7456 0.16498,1.3261 0.49506,1.7415 0.33577,0.4155 0.79978,0.6232 1.39164,0.6232 0.6374,0 1.10966,-0.2304 1.41697,-0.6914 h 0.0341 c -0.006,0.051 -0.0114,0.1425 -0.017,0.2734 -0.006,0.1252 -0.009,0.2216 -0.009,0.2899 v 0.1793 c 0,0.3984 -0.11342,0.7113 -0.34106,0.939 -0.22195,0.2333 -0.52923,0.3503 -0.92191,0.3503 -0.67723,0 -1.24075,-0.1196 -1.69034,-0.3586 v 0.6914 c 0.42683,0.1935 0.97591,0.2899 1.64745,0.2899 0.69999,0 1.21504,-0.1649 1.54512,-0.495 0.33577,-0.3301 0.50385,-0.8225 0.50385,-1.4769 v -4.652 h -0.5979 l -0.10232,0.6057 h -0.0429 c -0.17073,-0.2333 -0.3785,-0.4066 -0.62322,-0.5204 -0.23902,-0.1138 -0.50918,-0.171 -0.8108,-0.171 z m 6.28695,0 c -0.31869,0 -0.59761,0.091 -0.83664,0.2733 -0.23333,0.1821 -0.42099,0.3982 -0.56327,0.6486 h -0.0346 l -0.0853,-0.8362 h -0.61443 v 4.5755 h 0.75137 v -2.4417 c 0,-0.3073 0.0593,-0.5744 0.1788,-0.802 0.12521,-0.2334 0.2907,-0.4128 0.49558,-0.538 0.20488,-0.1309 0.42399,-0.1964 0.65732,-0.1964 0.074,0 0.15648,0.01 0.24753,0.017 0.0911,0.011 0.17355,0.025 0.24753,0.042 l 0.0935,-0.6915 c -0.0797,-0.017 -0.16784,-0.028 -0.26458,-0.034 -0.0967,-0.011 -0.18749,-0.017 -0.27286,-0.017 z m 18.15083,0 c -0.29024,0 -0.56658,0.06 -0.82837,0.1793 -0.26179,0.1138 -0.46647,0.2901 -0.61443,0.5292 h -0.0429 l -0.11059,-0.6228 h -0.60617 v 4.5755 h 0.75086 v -2.3735 c 0,-0.535 0.0969,-0.9443 0.29042,-1.2289 0.1935,-0.2845 0.54357,-0.4268 1.05007,-0.4268 0.68292,0 1.02423,0.3671 1.02423,1.1012 v 2.928 h 0.74259 v -2.9792 c 0,-0.5861 -0.13921,-1.013 -0.41807,-1.2805 -0.27886,-0.2675 -0.69131,-0.4015 -1.23765,-0.4015 z m 5.02295,0 c -0.51219,0 -0.92722,0.1057 -1.24592,0.3162 -0.313,0.2106 -0.46973,0.5091 -0.46973,0.8961 0,0.2504 0.0567,0.4551 0.17053,0.6144 0.11382,0.1594 0.27622,0.296 0.48679,0.4098 0.21057,0.1138 0.46371,0.2278 0.75964,0.3416 0.30163,0.1138 0.53209,0.2164 0.69143,0.3075 0.16504,0.091 0.27898,0.1818 0.34159,0.2728 0.0626,0.091 0.094,0.1937 0.094,0.3075 0,0.2049 -0.0856,0.3699 -0.25632,0.4951 -0.17073,0.1195 -0.44656,0.1793 -0.82785,0.1793 -0.26748,0 -0.53248,-0.037 -0.79427,-0.1111 -0.2561,-0.08 -0.4747,-0.1648 -0.65681,-0.2558 v 0.6826 c 0.17642,0.091 0.37801,0.1622 0.60565,0.2134 0.23333,0.051 0.50967,0.077 0.82837,0.077 0.55772,0 1.00162,-0.1139 1.3317,-0.3415 0.33008,-0.2277 0.49506,-0.5633 0.49506,-1.0072 0,-0.2447 -0.0541,-0.4468 -0.16226,-0.6062 -0.10813,-0.165 -0.26486,-0.3042 -0.46974,-0.418 -0.20488,-0.1139 -0.45235,-0.2252 -0.74259,-0.3333 -0.29024,-0.1082 -0.52328,-0.2046 -0.6997,-0.29 -0.17073,-0.085 -0.29343,-0.1709 -0.36742,-0.2563 -0.074,-0.085 -0.11059,-0.1936 -0.11059,-0.3245 0,-0.1707 0.0794,-0.3043 0.23875,-0.401 0.16504,-0.1024 0.40117,-0.1535 0.70848,-0.1535 0.22195,0 0.43849,0.028 0.64906,0.085 0.21057,0.057 0.41267,0.1249 0.60616,0.2046 l 0.2558,-0.5974 c -0.21057,-0.091 -0.43793,-0.1647 -0.68264,-0.2217 -0.23903,-0.057 -0.49836,-0.086 -0.77722,-0.086 z m 24.30136,0 c -0.40406,0 -0.7598,0.097 -1.06712,0.2904 -0.30162,0.1935 -0.53775,0.4693 -0.70848,0.8278 -0.16504,0.3586 -0.24805,0.7886 -0.24805,1.2894 0,0.5122 0.0913,0.9416 0.27337,1.2888 0.18781,0.3471 0.44662,0.609 0.7767,0.7855 0.33008,0.1764 0.71417,0.2645 1.15238,0.2645 0.31301,0 0.58368,-0.026 0.81132,-0.077 0.22764,-0.045 0.4581,-0.1192 0.69143,-0.2216 v -0.6574 c -0.23902,0.1025 -0.47257,0.1819 -0.70021,0.2388 -0.22195,0.051 -0.47767,0.077 -0.76791,0.077 -0.45529,0 -0.81103,-0.1336 -1.06712,-0.401 -0.25041,-0.2732 -0.38136,-0.6692 -0.39274,-1.187 h 3.13262 v -0.4522 c 0,-0.4155 -0.0768,-0.7769 -0.23047,-1.0842 -0.14797,-0.313 -0.36399,-0.5548 -0.64854,-0.7255 -0.28455,-0.1707 -0.62019,-0.2563 -1.00718,-0.2563 z m 14.10508,0 c -0.66015,0 -1.18088,0.2052 -1.56217,0.6149 -0.37561,0.4098 -0.56328,0.9929 -0.56328,1.7498 0,0.5065 0.0907,0.939 0.27285,1.2976 0.18212,0.3528 0.43011,0.623 0.74311,0.8108 0.3187,0.1821 0.67959,0.2733 1.08366,0.2733 0.65446,0 1.17261,-0.2077 1.55391,-0.6232 0.38699,-0.4154 0.58032,-1.0016 0.58032,-1.7585 0,-0.5065 -0.0907,-0.9334 -0.27285,-1.2806 -0.17642,-0.3528 -0.42441,-0.6204 -0.74311,-0.8025 -0.31869,-0.1878 -0.68268,-0.2816 -1.09244,-0.2816 z m -58.10239,0.01 c -0.29593,0 -0.58053,0.04 -0.8537,0.1193 -0.27317,0.074 -0.50929,0.1653 -0.70848,0.2734 l 0.23048,0.5633 c 0.1878,-0.091 0.3899,-0.171 0.60616,-0.2393 0.21626,-0.074 0.44414,-0.1106 0.68316,-0.1106 0.30163,0 0.53466,0.074 0.6997,0.2217 0.16504,0.148 0.24753,0.4125 0.24753,0.7938 v 0.2733 l -0.77669,0.026 c -0.74553,0.023 -1.2977,0.1594 -1.65623,0.4098 -0.35854,0.2447 -0.53744,0.5942 -0.53744,1.0495 0,0.4667 0.13663,0.8111 0.4098,1.033 0.27316,0.2163 0.61756,0.3245 1.03301,0.3245 0.3813,0 0.6829,-0.06 0.90485,-0.1793 0.22195,-0.1195 0.4323,-0.3046 0.63149,-0.555 h 0.0341 l 0.14521,0.6491 h 0.54622 v -3.1161 c 0,-0.535 -0.13353,-0.9247 -0.401,-1.1694 -0.26748,-0.2448 -0.68045,-0.3669 -1.23817,-0.3669 z m 26.49037,0.077 v 4.5755 h 0.75138 v -4.5755 z m 6.28179,0 v 2.9962 c 0,0.5805 0.13972,1.0043 0.41858,1.2718 0.27886,0.2618 0.6944,0.3927 1.24643,0.3927 0.29594,0 0.57486,-0.054 0.83664,-0.1622 0.26179,-0.1138 0.46647,-0.2902 0.61444,-0.5292 h 0.0341 l 0.11111,0.6062 h 0.61443 v -4.5755 h -0.75137 v 2.3813 c 0,0.535 -0.0995,0.9448 -0.29869,1.2294 -0.1935,0.2845 -0.54357,0.4268 -1.05007,0.4268 -0.67723,0 -1.01544,-0.364 -1.01544,-1.0924 v -2.9451 z m -47.73921,0.5292 c 0.3813,0 0.65971,0.1222 0.83613,0.3669 0.17642,0.239 0.26768,0.552 0.27337,0.939 h -2.33061 c 0.0398,-0.4098 0.16254,-0.7284 0.36742,-0.956 0.21057,-0.2334 0.49516,-0.3499 0.85369,-0.3499 z m 58.95558,0 c 0.3813,0 0.66022,0.1222 0.83664,0.3669 0.17642,0.239 0.26768,0.552 0.27337,0.939 h -2.33061 c 0.0398,-0.4098 0.16203,-0.7284 0.3669,-0.956 0.21057,-0.2334 0.49516,-0.3499 0.8537,-0.3499 z m 36.6391,0.01 c 0.50651,0 0.854,0.1536 1.0418,0.4609 0.18781,0.3017 0.28164,0.7373 0.28164,1.3064 v 0.1364 c 0,0.535 -0.0995,0.9361 -0.29869,1.2036 -0.1935,0.2618 -0.53222,0.3927 -1.01596,0.3927 -0.40975,0 -0.71703,-0.1505 -0.92191,-0.4521 -0.19918,-0.3017 -0.2992,-0.726 -0.2992,-1.2723 0,-0.5407 0.10002,-0.9701 0.2992,-1.2888 0.20488,-0.3244 0.50906,-0.4868 0.91312,-0.4868 z m -90.29009,0.01 c 0.46097,0 0.7997,0.1366 1.01596,0.4098 0.21626,0.2731 0.32453,0.7196 0.32453,1.3399 v 0.1794 c 0,0.552 -0.10518,0.9531 -0.31575,1.2035 -0.21057,0.2447 -0.54672,0.3674 -1.00769,0.3674 -0.40406,0 -0.70824,-0.148 -0.91312,-0.4439 -0.20488,-0.3016 -0.30748,-0.7342 -0.30748,-1.2976 0,-0.5634 0.10518,-0.996 0.31575,-1.2976 0.21057,-0.3073 0.5065,-0.4609 0.8878,-0.4609 z m 67.7478,0 c 0.46667,0 0.80797,0.1536 1.02423,0.4609 0.21626,0.3073 0.32453,0.7311 0.32453,1.2718 0,0.5406 -0.10827,0.9706 -0.32453,1.2893 -0.21626,0.313 -0.55499,0.4692 -1.01596,0.4692 -0.46666,0 -0.80797,-0.1562 -1.02423,-0.4692 -0.21056,-0.3187 -0.31574,-0.7487 -0.31574,-1.2893 0,-0.5407 0.10518,-0.9645 0.31574,-1.2718 0.21057,-0.3073 0.5493,-0.4609 1.01596,-0.4609 z m -57.18876,1.7926 v 0.4098 c 0,0.4439 -0.13095,0.7739 -0.39274,0.9901 -0.25609,0.2106 -0.57471,0.3158 -0.95601,0.3158 -0.24471,0 -0.44682,-0.06 -0.60617,-0.1793 -0.15365,-0.1195 -0.23047,-0.3072 -0.23047,-0.5633 0,-0.2903 0.10827,-0.515 0.32453,-0.6744 0.22195,-0.1593 0.61738,-0.2506 1.18649,-0.2734 z m 61.43501,1.2036 c -0.14227,0 -0.26446,0.043 -0.3669,0.1281 -0.10244,0.085 -0.15348,0.2334 -0.15348,0.4439 0,0.2049 0.051,0.3529 0.15348,0.4439 0.10244,0.091 0.22463,0.1365 0.3669,0.1365 0.14228,0 0.26756,-0.045 0.37569,-0.1365 0.10813,-0.091 0.16227,-0.239 0.16227,-0.4439 0,-0.2105 -0.0541,-0.3585 -0.16227,-0.4439 -0.10813,-0.085 -0.23341,-0.1281 -0.37569,-0.1281 z m 22.74745,0 c -0.14227,0 -0.26446,0.043 -0.3669,0.1281 -0.10244,0.085 -0.154,0.2334 -0.154,0.4439 0,0.2049 0.0516,0.3529 0.154,0.4439 0.10244,0.091 0.22463,0.1365 0.3669,0.1365 0.14228,0 0.26756,-0.045 0.37569,-0.1365 0.10813,-0.091 0.16226,-0.239 0.16226,-0.4439 0,-0.2105 -0.0541,-0.3585 -0.16226,-0.4439 -0.10813,-0.085 -0.23341,-0.1281 -0.37569,-0.1281 z m -20.29333,0.043 c -0.0398,0.2959 -0.10274,0.6372 -0.1881,1.0242 -0.0797,0.387 -0.15908,0.7427 -0.23875,1.0671 h 0.55501 c 0.13658,-0.3073 0.2732,-0.6429 0.40979,-1.0072 0.13658,-0.3585 0.24434,-0.689 0.32401,-0.9906 l -0.0594,-0.093 z"
           style="font-size:1.94594px;line-height:125%;font-family:'Noto Sans T Chinese';-inkscape-font-specification:'Noto Sans T Chinese, Normal';letter-spacing:0px;word-spacing:0px;display:inline;fill:#e6e6e6;fill-opacity:1;stroke-width:0.259364px"
           id="path4005-1-2-6-3-5-2" /><path
           d="m 134.56779,1255.2659 c -0.437,0.01 -0.86065,0.1812 -1.17615,0.5235 -0.18538,0.2009 -0.36937,0.2501 -0.62322,0.2501 -10.12699,-0.01 -20.2541,0 -30.38109,0 -1.12387,0 -2.01162,0.8861 -2.01228,2.0113 -6.7e-4,1.7871 -2.2e-4,3.5743 0,5.3614 2.2e-4,1.2048 0.86112,2.0681 2.06189,2.0681 h 18.88463 0.34262 v 19.3533 h -4.8705 v -0.3503 -6.3485 c 0,-3.0052 -0.001,-6.0102 0.005,-9.0154 4.4e-4,-0.1897 -0.0471,-0.3025 -0.21756,-0.4036 -0.54193,-0.3224 -1.07041,-0.6671 -1.60455,-1.0026 -0.15227,-0.095 -0.30637,-0.188 -0.47129,-0.2893 v 19.7884 h 9.4697 c 0,-7.8734 -2.2e-4,-15.7342 0,-23.6172 H 123.585 103.49992 c -0.08,0 -0.16022,0 -0.23977,0 -0.50392,-0.035 -0.73123,-0.2804 -0.73123,-0.7865 -2.2e-4,-1.3604 -2.2e-4,-2.7206 0,-4.0809 0,-0.5388 0.24226,-0.7876 0.77618,-0.7876 9.87804,0 19.75581,0 29.63385,0.01 0.11137,0 0.25293,0.069 0.32918,0.1519 0.4739,0.5193 1.05185,0.7171 1.73271,0.5695 0.71886,-0.1556 1.24048,-0.7564 1.31207,-1.4702 0.0749,-0.7477 -0.30373,-1.4348 -0.9648,-1.7497 -0.2514,-0.1199 -0.51811,-0.178 -0.78032,-0.1747 z m -10.59315,31.9417 v 10e-4 l 5.2e-4,-10e-4 z"
           style="clip-rule:evenodd;display:inline;fill:#e6e6e6;fill-opacity:1;fill-rule:evenodd"
           id="path4004-5-2-4-4-4-8" /><path
           d="m 114.57057,1243.572 v 10.5715 c 0.12736,0 0.241,3e-4 0.35398,5e-4 7.24554,0 14.4906,-2e-4 21.73614,0 0.62662,0 0.86661,0.2409 0.86661,0.8682 v 3.8669 c 0,0.6884 -0.23458,0.9209 -0.92965,0.9209 -9.80559,10e-4 -19.61176,3e-4 -29.41733,0.01 -0.19383,3e-4 -0.32909,-0.047 -0.45579,-0.1989 -0.33097,-0.3974 -0.76319,-0.5889 -1.28467,-0.586 -0.78243,0.01 -1.47401,0.5219 -1.6614,1.2506 -0.20471,0.7962 0.13296,1.5923 0.83871,1.9771 0.68308,0.3723 1.5769,0.2322 2.09083,-0.355 0.13892,-0.1586 0.27389,-0.2093 0.47439,-0.2093 10.13456,0 20.26905,0 30.40383,0 1.21055,0 2.06089,-0.8143 2.06964,-2.0226 0.0139,-1.7956 0.0145,-3.5917 0,-5.3873 -0.01,-1.2099 -0.86325,-2.0314 -2.06603,-2.0314 h -20.34863 -0.34778 v -6.274 h 4.84312 v 0.3116 c 0,0.7822 0.005,1.5644 -0.004,2.3466 -0.002,0.1714 0.0486,0.272 0.19844,0.3623 0.57749,0.3483 1.14632,0.7119 1.71824,1.0702 0.1227,0.077 0.24436,0.1547 0.38396,0.2429 v -6.734 z m 0,10.5715 h -5.2e-4 z"
           style="clip-rule:evenodd;display:inline;fill:#e6e6e6;fill-opacity:1;fill-rule:evenodd"
           id="path4003-8-1-1-3-9-4" /><path
           d="m 119.43642,1227.3529 c -3.93974,-0.073 -6.79318,2.9956 -6.94945,6.4668 -0.18027,4.0082 2.98261,7.1271 6.78098,7.1478 3.69548,-0.01 6.73212,-2.8843 6.82129,-6.6332 0.0929,-3.9164 -2.96469,-6.9126 -6.65282,-6.9814 z m -0.0822,2.4996 c 2.30975,0.033 4.22796,1.9547 4.22817,4.2989 0.0336,2.1644 -1.68457,4.3069 -4.29018,4.3098 -2.48157,0 -4.32633,-1.947 -4.30981,-4.3201 0.0178,-2.5981 2.15345,-4.3208 4.37182,-4.2886 z"
           style="clip-rule:evenodd;display:inline;fill:#e6e6e6;fill-opacity:1;fill-rule:evenodd"
           id="path4002-0-9-5-8-5-8" /></g><rect
         style="display:inline;fill:none;fill-rule:evenodd;stroke:none;stroke-width:0.804842;stroke-linecap:square;paint-order:stroke fill markers"
         id="rect15-1"
         width="91.54583"
         height="17.4625"
         x="2882.3013"
         y="332.31967" /></g></g><script
     id="mesh_polyfill"
     type="text/javascript">
!function(){const t=&quot;http://www.w3.org/2000/svg&quot;,e=&quot;http://www.w3.org/1999/xlink&quot;,s=&quot;http://www.w3.org/1999/xhtml&quot;,r=2;if(document.createElementNS(t,&quot;meshgradient&quot;).x)return;const n=(t,e,s,r)=&gt;{let n=new x(.5*(e.x+s.x),.5*(e.y+s.y)),o=new x(.5*(t.x+e.x),.5*(t.y+e.y)),i=new x(.5*(s.x+r.x),.5*(s.y+r.y)),a=new x(.5*(n.x+o.x),.5*(n.y+o.y)),h=new x(.5*(n.x+i.x),.5*(n.y+i.y)),l=new x(.5*(a.x+h.x),.5*(a.y+h.y));return[[t,o,a,l],[l,h,i,r]]},o=t=&gt;{let e=t[0].distSquared(t[1]),s=t[2].distSquared(t[3]),r=.25*t[0].distSquared(t[2]),n=.25*t[1].distSquared(t[3]),o=e&gt;s?e:s,i=r&gt;n?r:n;return 18*(o&gt;i?o:i)},i=(t,e)=&gt;Math.sqrt(t.distSquared(e)),a=(t,e)=&gt;t.scale(2/3).add(e.scale(1/3)),h=t=&gt;{let e,s,r,n,o,i,a,h=new g;return t.match(/(\w+\(\s*[^)]+\))+/g).forEach(t=&gt;{let l=t.match(/[\w.-]+/g),d=l.shift();switch(d){case&quot;translate&quot;:2===l.length?e=new g(1,0,0,1,l[0],l[1]):(console.error(&quot;mesh.js: translate does not have 2 arguments!&quot;),e=new g(1,0,0,1,0,0)),h=h.append(e);break;case&quot;scale&quot;:1===l.length?s=new g(l[0],0,0,l[0],0,0):2===l.length?s=new g(l[0],0,0,l[1],0,0):(console.error(&quot;mesh.js: scale does not have 1 or 2 arguments!&quot;),s=new g(1,0,0,1,0,0)),h=h.append(s);break;case&quot;rotate&quot;:if(3===l.length&amp;&amp;(e=new g(1,0,0,1,l[1],l[2]),h=h.append(e)),l[0]){r=l[0]*Math.PI/180;let t=Math.cos(r),e=Math.sin(r);Math.abs(t)&lt;1e-16&amp;&amp;(t=0),Math.abs(e)&lt;1e-16&amp;&amp;(e=0),a=new g(t,e,-e,t,0,0),h=h.append(a)}else console.error(&quot;math.js: No argument to rotate transform!&quot;);3===l.length&amp;&amp;(e=new g(1,0,0,1,-l[1],-l[2]),h=h.append(e));break;case&quot;skewX&quot;:l[0]?(r=l[0]*Math.PI/180,n=Math.tan(r),o=new g(1,0,n,1,0,0),h=h.append(o)):console.error(&quot;math.js: No argument to skewX transform!&quot;);break;case&quot;skewY&quot;:l[0]?(r=l[0]*Math.PI/180,n=Math.tan(r),i=new g(1,n,0,1,0,0),h=h.append(i)):console.error(&quot;math.js: No argument to skewY transform!&quot;);break;case&quot;matrix&quot;:6===l.length?h=h.append(new g(...l)):console.error(&quot;math.js: Incorrect number of arguments for matrix!&quot;);break;default:console.error(&quot;mesh.js: Unhandled transform type: &quot;+d)}}),h},l=t=&gt;{let e=[],s=t.split(/[ ,]+/);for(let t=0,r=s.length-1;t&lt;r;t+=2)e.push(new x(parseFloat(s[t]),parseFloat(s[t+1])));return e},d=(t,e)=&gt;{for(let s in e)t.setAttribute(s,e[s])},c=(t,e,s,r,n)=&gt;{let o,i,a=[0,0,0,0];for(let h=0;h&lt;3;++h)e[h]&lt;t[h]&amp;&amp;e[h]&lt;s[h]||t[h]&lt;e[h]&amp;&amp;s[h]&lt;e[h]?a[h]=0:(a[h]=.5*((e[h]-t[h])/r+(s[h]-e[h])/n),o=Math.abs(3*(e[h]-t[h])/r),i=Math.abs(3*(s[h]-e[h])/n),a[h]&gt;o?a[h]=o:a[h]&gt;i&amp;&amp;(a[h]=i));return a},u=[[1,0,0,0,0,0,0,0,0,0,0,0,0,0,0,0],[0,0,0,0,1,0,0,0,0,0,0,0,0,0,0,0],[-3,3,0,0,-2,-1,0,0,0,0,0,0,0,0,0,0],[2,-2,0,0,1,1,0,0,0,0,0,0,0,0,0,0],[0,0,0,0,0,0,0,0,1,0,0,0,0,0,0,0],[0,0,0,0,0,0,0,0,0,0,0,0,1,0,0,0],[0,0,0,0,0,0,0,0,-3,3,0,0,-2,-1,0,0],[0,0,0,0,0,0,0,0,2,-2,0,0,1,1,0,0],[-3,0,3,0,0,0,0,0,-2,0,-1,0,0,0,0,0],[0,0,0,0,-3,0,3,0,0,0,0,0,-2,0,-1,0],[9,-9,-9,9,6,3,-6,-3,6,-6,3,-3,4,2,2,1],[-6,6,6,-6,-3,-3,3,3,-4,4,-2,2,-2,-2,-1,-1],[2,0,-2,0,0,0,0,0,1,0,1,0,0,0,0,0],[0,0,0,0,2,0,-2,0,0,0,0,0,1,0,1,0],[-6,6,6,-6,-4,-2,4,2,-3,3,-3,3,-2,-1,-2,-1],[4,-4,-4,4,2,2,-2,-2,2,-2,2,-2,1,1,1,1]],f=t=&gt;{let e=[];for(let s=0;s&lt;16;++s){e[s]=0;for(let r=0;r&lt;16;++r)e[s]+=u[s][r]*t[r]}return e},p=(t,e,s)=&gt;{const r=e*e,n=s*s,o=e*e*e,i=s*s*s;return t[0]+t[1]*e+t[2]*r+t[3]*o+t[4]*s+t[5]*s*e+t[6]*s*r+t[7]*s*o+t[8]*n+t[9]*n*e+t[10]*n*r+t[11]*n*o+t[12]*i+t[13]*i*e+t[14]*i*r+t[15]*i*o},y=t=&gt;{let e=[],s=[],r=[];for(let s=0;s&lt;4;++s)e[s]=[],e[s][0]=n(t[0][s],t[1][s],t[2][s],t[3][s]),e[s][1]=[],e[s][1].push(...n(...e[s][0][0])),e[s][1].push(...n(...e[s][0][1])),e[s][2]=[],e[s][2].push(...n(...e[s][1][0])),e[s][2].push(...n(...e[s][1][1])),e[s][2].push(...n(...e[s][1][2])),e[s][2].push(...n(...e[s][1][3]));for(let t=0;t&lt;8;++t){s[t]=[];for(let r=0;r&lt;4;++r)s[t][r]=[],s[t][r][0]=n(e[0][2][t][r],e[1][2][t][r],e[2][2][t][r],e[3][2][t][r]),s[t][r][1]=[],s[t][r][1].push(...n(...s[t][r][0][0])),s[t][r][1].push(...n(...s[t][r][0][1])),s[t][r][2]=[],s[t][r][2].push(...n(...s[t][r][1][0])),s[t][r][2].push(...n(...s[t][r][1][1])),s[t][r][2].push(...n(...s[t][r][1][2])),s[t][r][2].push(...n(...s[t][r][1][3]))}for(let t=0;t&lt;8;++t){r[t]=[];for(let e=0;e&lt;8;++e)r[t][e]=[],r[t][e][0]=s[t][0][2][e],r[t][e][1]=s[t][1][2][e],r[t][e][2]=s[t][2][2][e],r[t][e][3]=s[t][3][2][e]}return r};class x{constructor(t,e){this.x=t||0,this.y=e||0}toString(){return`(x=${this.x}, y=${this.y})`}clone(){return new x(this.x,this.y)}add(t){return new x(this.x+t.x,this.y+t.y)}scale(t){return void 0===t.x?new x(this.x*t,this.y*t):new x(this.x*t.x,this.y*t.y)}distSquared(t){let e=this.x-t.x,s=this.y-t.y;return e*e+s*s}transform(t){let e=this.x*t.a+this.y*t.c+t.e,s=this.x*t.b+this.y*t.d+t.f;return new x(e,s)}}class g{constructor(t,e,s,r,n,o){void 0===t?(this.a=1,this.b=0,this.c=0,this.d=1,this.e=0,this.f=0):(this.a=t,this.b=e,this.c=s,this.d=r,this.e=n,this.f=o)}toString(){return`affine: ${this.a} ${this.c} ${this.e} \n       ${this.b} ${this.d} ${this.f}`}append(t){t instanceof g||console.error(&quot;mesh.js: argument to Affine.append is not affine!&quot;);let e=this.a*t.a+this.c*t.b,s=this.b*t.a+this.d*t.b,r=this.a*t.c+this.c*t.d,n=this.b*t.c+this.d*t.d,o=this.a*t.e+this.c*t.f+this.e,i=this.b*t.e+this.d*t.f+this.f;return new g(e,s,r,n,o,i)}}class w{constructor(t,e){this.nodes=t,this.colors=e}paintCurve(t,e){if(o(this.nodes)&gt;r){const s=n(...this.nodes);let r=[[],[]],o=[[],[]];for(let t=0;t&lt;4;++t)r[0][t]=this.colors[0][t],r[1][t]=(this.colors[0][t]+this.colors[1][t])/2,o[0][t]=r[1][t],o[1][t]=this.colors[1][t];let i=new w(s[0],r),a=new w(s[1],o);i.paintCurve(t,e),a.paintCurve(t,e)}else{let s=Math.round(this.nodes[0].x);if(s&gt;=0&amp;&amp;s&lt;e){let r=4*(~~this.nodes[0].y*e+s);t[r]=Math.round(this.colors[0][0]),t[r+1]=Math.round(this.colors[0][1]),t[r+2]=Math.round(this.colors[0][2]),t[r+3]=Math.round(this.colors[0][3])}}}}class m{constructor(t,e){this.nodes=t,this.colors=e}split(){let t=[[],[],[],[]],e=[[],[],[],[]],s=[[[],[]],[[],[]]],r=[[[],[]],[[],[]]];for(let s=0;s&lt;4;++s){const r=n(this.nodes[0][s],this.nodes[1][s],this.nodes[2][s],this.nodes[3][s]);t[0][s]=r[0][0],t[1][s]=r[0][1],t[2][s]=r[0][2],t[3][s]=r[0][3],e[0][s]=r[1][0],e[1][s]=r[1][1],e[2][s]=r[1][2],e[3][s]=r[1][3]}for(let t=0;t&lt;4;++t)s[0][0][t]=this.colors[0][0][t],s[0][1][t]=this.colors[0][1][t],s[1][0][t]=(this.colors[0][0][t]+this.colors[1][0][t])/2,s[1][1][t]=(this.colors[0][1][t]+this.colors[1][1][t])/2,r[0][0][t]=s[1][0][t],r[0][1][t]=s[1][1][t],r[1][0][t]=this.colors[1][0][t],r[1][1][t]=this.colors[1][1][t];return[new m(t,s),new m(e,r)]}paint(t,e){let s,n=!1;for(let t=0;t&lt;4;++t)if((s=o([this.nodes[0][t],this.nodes[1][t],this.nodes[2][t],this.nodes[3][t]]))&gt;r){n=!0;break}if(n){let s=this.split();s[0].paint(t,e),s[1].paint(t,e)}else{new w([...this.nodes[0]],[...this.colors[0]]).paintCurve(t,e)}}}class b{constructor(t){this.readMesh(t),this.type=t.getAttribute(&quot;type&quot;)||&quot;bilinear&quot;}readMesh(t){let e=[[]],s=[[]],r=Number(t.getAttribute(&quot;x&quot;)),n=Number(t.getAttribute(&quot;y&quot;));e[0][0]=new x(r,n);let o=t.children;for(let t=0,r=o.length;t&lt;r;++t){e[3*t+1]=[],e[3*t+2]=[],e[3*t+3]=[],s[t+1]=[];let r=o[t].children;for(let n=0,o=r.length;n&lt;o;++n){let o=r[n].children;for(let r=0,i=o.length;r&lt;i;++r){let i=r;0!==t&amp;&amp;++i;let h,d=o[r].getAttribute(&quot;path&quot;),c=&quot;l&quot;;null!=d&amp;&amp;(c=(h=d.match(/\s*([lLcC])\s*(.*)/))[1]);let u=l(h[2]);switch(c){case&quot;l&quot;:0===i?(e[3*t][3*n+3]=u[0].add(e[3*t][3*n]),e[3*t][3*n+1]=a(e[3*t][3*n],e[3*t][3*n+3]),e[3*t][3*n+2]=a(e[3*t][3*n+3],e[3*t][3*n])):1===i?(e[3*t+3][3*n+3]=u[0].add(e[3*t][3*n+3]),e[3*t+1][3*n+3]=a(e[3*t][3*n+3],e[3*t+3][3*n+3]),e[3*t+2][3*n+3]=a(e[3*t+3][3*n+3],e[3*t][3*n+3])):2===i?(0===n&amp;&amp;(e[3*t+3][3*n+0]=u[0].add(e[3*t+3][3*n+3])),e[3*t+3][3*n+1]=a(e[3*t+3][3*n],e[3*t+3][3*n+3]),e[3*t+3][3*n+2]=a(e[3*t+3][3*n+3],e[3*t+3][3*n])):(e[3*t+1][3*n]=a(e[3*t][3*n],e[3*t+3][3*n]),e[3*t+2][3*n]=a(e[3*t+3][3*n],e[3*t][3*n]));break;case&quot;L&quot;:0===i?(e[3*t][3*n+3]=u[0],e[3*t][3*n+1]=a(e[3*t][3*n],e[3*t][3*n+3]),e[3*t][3*n+2]=a(e[3*t][3*n+3],e[3*t][3*n])):1===i?(e[3*t+3][3*n+3]=u[0],e[3*t+1][3*n+3]=a(e[3*t][3*n+3],e[3*t+3][3*n+3]),e[3*t+2][3*n+3]=a(e[3*t+3][3*n+3],e[3*t][3*n+3])):2===i?(0===n&amp;&amp;(e[3*t+3][3*n+0]=u[0]),e[3*t+3][3*n+1]=a(e[3*t+3][3*n],e[3*t+3][3*n+3]),e[3*t+3][3*n+2]=a(e[3*t+3][3*n+3],e[3*t+3][3*n])):(e[3*t+1][3*n]=a(e[3*t][3*n],e[3*t+3][3*n]),e[3*t+2][3*n]=a(e[3*t+3][3*n],e[3*t][3*n]));break;case&quot;c&quot;:0===i?(e[3*t][3*n+1]=u[0].add(e[3*t][3*n]),e[3*t][3*n+2]=u[1].add(e[3*t][3*n]),e[3*t][3*n+3]=u[2].add(e[3*t][3*n])):1===i?(e[3*t+1][3*n+3]=u[0].add(e[3*t][3*n+3]),e[3*t+2][3*n+3]=u[1].add(e[3*t][3*n+3]),e[3*t+3][3*n+3]=u[2].add(e[3*t][3*n+3])):2===i?(e[3*t+3][3*n+2]=u[0].add(e[3*t+3][3*n+3]),e[3*t+3][3*n+1]=u[1].add(e[3*t+3][3*n+3]),0===n&amp;&amp;(e[3*t+3][3*n+0]=u[2].add(e[3*t+3][3*n+3]))):(e[3*t+2][3*n]=u[0].add(e[3*t+3][3*n]),e[3*t+1][3*n]=u[1].add(e[3*t+3][3*n]));break;case&quot;C&quot;:0===i?(e[3*t][3*n+1]=u[0],e[3*t][3*n+2]=u[1],e[3*t][3*n+3]=u[2]):1===i?(e[3*t+1][3*n+3]=u[0],e[3*t+2][3*n+3]=u[1],e[3*t+3][3*n+3]=u[2]):2===i?(e[3*t+3][3*n+2]=u[0],e[3*t+3][3*n+1]=u[1],0===n&amp;&amp;(e[3*t+3][3*n+0]=u[2])):(e[3*t+2][3*n]=u[0],e[3*t+1][3*n]=u[1]);break;default:console.error(&quot;mesh.js: &quot;+c+&quot; invalid path type.&quot;)}if(0===t&amp;&amp;0===n||r&gt;0){let e=window.getComputedStyle(o[r]).stopColor.match(/^rgb\s*\(\s*(\d+)\s*,\s*(\d+)\s*,\s*(\d+)\s*\)$/i),a=window.getComputedStyle(o[r]).stopOpacity,h=255;a&amp;&amp;(h=Math.floor(255*a)),e&amp;&amp;(0===i?(s[t][n]=[],s[t][n][0]=Math.floor(e[1]),s[t][n][1]=Math.floor(e[2]),s[t][n][2]=Math.floor(e[3]),s[t][n][3]=h):1===i?(s[t][n+1]=[],s[t][n+1][0]=Math.floor(e[1]),s[t][n+1][1]=Math.floor(e[2]),s[t][n+1][2]=Math.floor(e[3]),s[t][n+1][3]=h):2===i?(s[t+1][n+1]=[],s[t+1][n+1][0]=Math.floor(e[1]),s[t+1][n+1][1]=Math.floor(e[2]),s[t+1][n+1][2]=Math.floor(e[3]),s[t+1][n+1][3]=h):3===i&amp;&amp;(s[t+1][n]=[],s[t+1][n][0]=Math.floor(e[1]),s[t+1][n][1]=Math.floor(e[2]),s[t+1][n][2]=Math.floor(e[3]),s[t+1][n][3]=h))}}e[3*t+1][3*n+1]=new x,e[3*t+1][3*n+2]=new x,e[3*t+2][3*n+1]=new x,e[3*t+2][3*n+2]=new x,e[3*t+1][3*n+1].x=(-4*e[3*t][3*n].x+6*(e[3*t][3*n+1].x+e[3*t+1][3*n].x)+-2*(e[3*t][3*n+3].x+e[3*t+3][3*n].x)+3*(e[3*t+3][3*n+1].x+e[3*t+1][3*n+3].x)+-1*e[3*t+3][3*n+3].x)/9,e[3*t+1][3*n+2].x=(-4*e[3*t][3*n+3].x+6*(e[3*t][3*n+2].x+e[3*t+1][3*n+3].x)+-2*(e[3*t][3*n].x+e[3*t+3][3*n+3].x)+3*(e[3*t+3][3*n+2].x+e[3*t+1][3*n].x)+-1*e[3*t+3][3*n].x)/9,e[3*t+2][3*n+1].x=(-4*e[3*t+3][3*n].x+6*(e[3*t+3][3*n+1].x+e[3*t+2][3*n].x)+-2*(e[3*t+3][3*n+3].x+e[3*t][3*n].x)+3*(e[3*t][3*n+1].x+e[3*t+2][3*n+3].x)+-1*e[3*t][3*n+3].x)/9,e[3*t+2][3*n+2].x=(-4*e[3*t+3][3*n+3].x+6*(e[3*t+3][3*n+2].x+e[3*t+2][3*n+3].x)+-2*(e[3*t+3][3*n].x+e[3*t][3*n+3].x)+3*(e[3*t][3*n+2].x+e[3*t+2][3*n].x)+-1*e[3*t][3*n].x)/9,e[3*t+1][3*n+1].y=(-4*e[3*t][3*n].y+6*(e[3*t][3*n+1].y+e[3*t+1][3*n].y)+-2*(e[3*t][3*n+3].y+e[3*t+3][3*n].y)+3*(e[3*t+3][3*n+1].y+e[3*t+1][3*n+3].y)+-1*e[3*t+3][3*n+3].y)/9,e[3*t+1][3*n+2].y=(-4*e[3*t][3*n+3].y+6*(e[3*t][3*n+2].y+e[3*t+1][3*n+3].y)+-2*(e[3*t][3*n].y+e[3*t+3][3*n+3].y)+3*(e[3*t+3][3*n+2].y+e[3*t+1][3*n].y)+-1*e[3*t+3][3*n].y)/9,e[3*t+2][3*n+1].y=(-4*e[3*t+3][3*n].y+6*(e[3*t+3][3*n+1].y+e[3*t+2][3*n].y)+-2*(e[3*t+3][3*n+3].y+e[3*t][3*n].y)+3*(e[3*t][3*n+1].y+e[3*t+2][3*n+3].y)+-1*e[3*t][3*n+3].y)/9,e[3*t+2][3*n+2].y=(-4*e[3*t+3][3*n+3].y+6*(e[3*t+3][3*n+2].y+e[3*t+2][3*n+3].y)+-2*(e[3*t+3][3*n].y+e[3*t][3*n+3].y)+3*(e[3*t][3*n+2].y+e[3*t+2][3*n].y)+-1*e[3*t][3*n].y)/9}}this.nodes=e,this.colors=s}paintMesh(t,e){let s=(this.nodes.length-1)/3,r=(this.nodes[0].length-1)/3;if(&quot;bilinear&quot;===this.type||s&lt;2||r&lt;2){let n;for(let o=0;o&lt;s;++o)for(let s=0;s&lt;r;++s){let r=[];for(let t=3*o,e=3*o+4;t&lt;e;++t)r.push(this.nodes[t].slice(3*s,3*s+4));let i=[];i.push(this.colors[o].slice(s,s+2)),i.push(this.colors[o+1].slice(s,s+2)),(n=new m(r,i)).paint(t,e)}}else{let n,o,a,h,l,d,u;const x=s,g=r;s++,r++;let w=new Array(s);for(let t=0;t&lt;s;++t){w[t]=new Array(r);for(let e=0;e&lt;r;++e)w[t][e]=[],w[t][e][0]=this.nodes[3*t][3*e],w[t][e][1]=this.colors[t][e]}for(let t=0;t&lt;s;++t)for(let e=0;e&lt;r;++e)0!==t&amp;&amp;t!==x&amp;&amp;(n=i(w[t-1][e][0],w[t][e][0]),o=i(w[t+1][e][0],w[t][e][0]),w[t][e][2]=c(w[t-1][e][1],w[t][e][1],w[t+1][e][1],n,o)),0!==e&amp;&amp;e!==g&amp;&amp;(n=i(w[t][e-1][0],w[t][e][0]),o=i(w[t][e+1][0],w[t][e][0]),w[t][e][3]=c(w[t][e-1][1],w[t][e][1],w[t][e+1][1],n,o));for(let t=0;t&lt;r;++t){w[0][t][2]=[],w[x][t][2]=[];for(let e=0;e&lt;4;++e)n=i(w[1][t][0],w[0][t][0]),o=i(w[x][t][0],w[x-1][t][0]),w[0][t][2][e]=n&gt;0?2*(w[1][t][1][e]-w[0][t][1][e])/n-w[1][t][2][e]:0,w[x][t][2][e]=o&gt;0?2*(w[x][t][1][e]-w[x-1][t][1][e])/o-w[x-1][t][2][e]:0}for(let t=0;t&lt;s;++t){w[t][0][3]=[],w[t][g][3]=[];for(let e=0;e&lt;4;++e)n=i(w[t][1][0],w[t][0][0]),o=i(w[t][g][0],w[t][g-1][0]),w[t][0][3][e]=n&gt;0?2*(w[t][1][1][e]-w[t][0][1][e])/n-w[t][1][3][e]:0,w[t][g][3][e]=o&gt;0?2*(w[t][g][1][e]-w[t][g-1][1][e])/o-w[t][g-1][3][e]:0}for(let s=0;s&lt;x;++s)for(let r=0;r&lt;g;++r){let n=i(w[s][r][0],w[s+1][r][0]),o=i(w[s][r+1][0],w[s+1][r+1][0]),c=i(w[s][r][0],w[s][r+1][0]),x=i(w[s+1][r][0],w[s+1][r+1][0]),g=[[],[],[],[]];for(let t=0;t&lt;4;++t){(d=[])[0]=w[s][r][1][t],d[1]=w[s+1][r][1][t],d[2]=w[s][r+1][1][t],d[3]=w[s+1][r+1][1][t],d[4]=w[s][r][2][t]*n,d[5]=w[s+1][r][2][t]*n,d[6]=w[s][r+1][2][t]*o,d[7]=w[s+1][r+1][2][t]*o,d[8]=w[s][r][3][t]*c,d[9]=w[s+1][r][3][t]*x,d[10]=w[s][r+1][3][t]*c,d[11]=w[s+1][r+1][3][t]*x,d[12]=0,d[13]=0,d[14]=0,d[15]=0,u=f(d);for(let e=0;e&lt;9;++e){g[t][e]=[];for(let s=0;s&lt;9;++s)g[t][e][s]=p(u,e/8,s/8),g[t][e][s]&gt;255?g[t][e][s]=255:g[t][e][s]&lt;0&amp;&amp;(g[t][e][s]=0)}}h=[];for(let t=3*s,e=3*s+4;t&lt;e;++t)h.push(this.nodes[t].slice(3*r,3*r+4));l=y(h);for(let s=0;s&lt;8;++s)for(let r=0;r&lt;8;++r)(a=new m(l[s][r],[[[g[0][s][r],g[1][s][r],g[2][s][r],g[3][s][r]],[g[0][s][r+1],g[1][s][r+1],g[2][s][r+1],g[3][s][r+1]]],[[g[0][s+1][r],g[1][s+1][r],g[2][s+1][r],g[3][s+1][r]],[g[0][s+1][r+1],g[1][s+1][r+1],g[2][s+1][r+1],g[3][s+1][r+1]]]])).paint(t,e)}}}transform(t){if(t instanceof x)for(let e=0,s=this.nodes.length;e&lt;s;++e)for(let s=0,r=this.nodes[0].length;s&lt;r;++s)this.nodes[e][s]=this.nodes[e][s].add(t);else if(t instanceof g)for(let e=0,s=this.nodes.length;e&lt;s;++e)for(let s=0,r=this.nodes[0].length;s&lt;r;++s)this.nodes[e][s]=this.nodes[e][s].transform(t)}scale(t){for(let e=0,s=this.nodes.length;e&lt;s;++e)for(let s=0,r=this.nodes[0].length;s&lt;r;++s)this.nodes[e][s]=this.nodes[e][s].scale(t)}}document.querySelectorAll(&quot;rect,circle,ellipse,path,text&quot;).forEach((r,n)=&gt;{let o=r.getAttribute(&quot;id&quot;);o||(o=&quot;patchjs_shape&quot;+n,r.setAttribute(&quot;id&quot;,o));const i=r.style.fill.match(/^url\(\s*&quot;?\s*#([^\s&quot;]+)&quot;?\s*\)/),a=r.style.stroke.match(/^url\(\s*&quot;?\s*#([^\s&quot;]+)&quot;?\s*\)/);if(i&amp;&amp;i[1]){const a=document.getElementById(i[1]);if(a&amp;&amp;&quot;meshgradient&quot;===a.nodeName){const i=r.getBBox();let l=document.createElementNS(s,&quot;canvas&quot;);d(l,{width:i.width,height:i.height});const c=l.getContext(&quot;2d&quot;);let u=c.createImageData(i.width,i.height);const f=new b(a);&quot;objectBoundingBox&quot;===a.getAttribute(&quot;gradientUnits&quot;)&amp;&amp;f.scale(new x(i.width,i.height));const p=a.getAttribute(&quot;gradientTransform&quot;);null!=p&amp;&amp;f.transform(h(p)),&quot;userSpaceOnUse&quot;===a.getAttribute(&quot;gradientUnits&quot;)&amp;&amp;f.transform(new x(-i.x,-i.y)),f.paintMesh(u.data,l.width),c.putImageData(u,0,0);const y=document.createElementNS(t,&quot;image&quot;);d(y,{width:i.width,height:i.height,x:i.x,y:i.y});let g=l.toDataURL();y.setAttributeNS(e,&quot;xlink:href&quot;,g),r.parentNode.insertBefore(y,r),r.style.fill=&quot;none&quot;;const w=document.createElementNS(t,&quot;use&quot;);w.setAttributeNS(e,&quot;xlink:href&quot;,&quot;#&quot;+o);const m=&quot;patchjs_clip&quot;+n,M=document.createElementNS(t,&quot;clipPath&quot;);M.setAttribute(&quot;id&quot;,m),M.appendChild(w),r.parentElement.insertBefore(M,r),y.setAttribute(&quot;clip-path&quot;,&quot;url(#&quot;+m+&quot;)&quot;),u=null,l=null,g=null}}if(a&amp;&amp;a[1]){const o=document.getElementById(a[1]);if(o&amp;&amp;&quot;meshgradient&quot;===o.nodeName){const i=parseFloat(r.style.strokeWidth.slice(0,-2))*(parseFloat(r.style.strokeMiterlimit)||parseFloat(r.getAttribute(&quot;stroke-miterlimit&quot;))||1),a=r.getBBox(),l=Math.trunc(a.width+i),c=Math.trunc(a.height+i),u=Math.trunc(a.x-i/2),f=Math.trunc(a.y-i/2);let p=document.createElementNS(s,&quot;canvas&quot;);d(p,{width:l,height:c});const y=p.getContext(&quot;2d&quot;);let g=y.createImageData(l,c);const w=new b(o);&quot;objectBoundingBox&quot;===o.getAttribute(&quot;gradientUnits&quot;)&amp;&amp;w.scale(new x(l,c));const m=o.getAttribute(&quot;gradientTransform&quot;);null!=m&amp;&amp;w.transform(h(m)),&quot;userSpaceOnUse&quot;===o.getAttribute(&quot;gradientUnits&quot;)&amp;&amp;w.transform(new x(-u,-f)),w.paintMesh(g.data,p.width),y.putImageData(g,0,0);const M=document.createElementNS(t,&quot;image&quot;);d(M,{width:l,height:c,x:0,y:0});let S=p.toDataURL();M.setAttributeNS(e,&quot;xlink:href&quot;,S);const k=&quot;pattern_clip&quot;+n,A=document.createElementNS(t,&quot;pattern&quot;);d(A,{id:k,patternUnits:&quot;userSpaceOnUse&quot;,width:l,height:c,x:u,y:f}),A.appendChild(M),o.parentNode.appendChild(A),r.style.stroke=&quot;url(#&quot;+k+&quot;)&quot;,g=null,p=null,S=null}}})}();
</script></svg>
